<svg width="309" height="675" viewBox="0 0 309 675" fill="none" xmlns="http://www.w3.org/2000/svg">
<path d="M279.048 291.452C279.59 293.303 279.374 295.293 278.448 296.985C277.522 298.677 275.961 299.932 274.11 300.474L256.66 305.579C254.809 306.121 252.818 305.905 251.126 304.979C249.434 304.053 248.179 302.492 247.638 300.641L279.048 291.452ZM275.985 280.981L244.574 290.171C243.649 290.442 242.869 291.069 242.406 291.915C241.943 292.761 241.835 293.757 242.105 294.682C242.376 295.608 243.004 296.388 243.85 296.851C244.696 297.314 245.691 297.422 246.617 297.151L278.027 287.961C278.953 287.691 279.733 287.063 280.196 286.217C280.659 285.371 280.767 284.376 280.496 283.45C280.225 282.525 279.598 281.745 278.752 281.282C277.906 280.819 276.911 280.711 275.985 280.981ZM266.84 268.502L245.586 274.72C244.234 275.115 243.095 276.031 242.419 277.267C241.743 278.502 241.585 279.955 241.981 281.306L243.553 286.681L274.964 277.491L273.402 272.151C273.21 271.481 272.889 270.855 272.456 270.308C272.023 269.762 271.486 269.307 270.877 268.968C270.267 268.629 269.597 268.413 268.905 268.333C268.212 268.253 267.511 268.31 266.84 268.502ZM251.432 280.587C251.092 280.725 250.718 280.757 250.359 280.678C250.001 280.599 249.675 280.414 249.424 280.146C249.173 279.879 249.008 279.541 248.952 279.179C248.897 278.816 248.952 278.445 249.111 278.114C249.27 277.783 249.525 277.508 249.843 277.326C250.162 277.143 250.528 277.06 250.893 277.089C251.259 277.119 251.608 277.258 251.893 277.488C252.178 277.719 252.387 278.031 252.492 278.383C252.627 278.845 252.573 279.343 252.342 279.766C252.11 280.189 251.72 280.503 251.257 280.638L251.432 280.587ZM265.392 276.503C265.052 276.641 264.678 276.672 264.32 276.593C263.961 276.515 263.635 276.329 263.384 276.062C263.133 275.794 262.968 275.457 262.913 275.094C262.857 274.732 262.912 274.36 263.071 274.03C263.23 273.699 263.485 273.424 263.804 273.241C264.122 273.058 264.488 272.976 264.854 273.005C265.219 273.034 265.568 273.173 265.853 273.404C266.139 273.635 266.347 273.947 266.452 274.298C266.588 274.761 266.534 275.259 266.302 275.682C266.071 276.105 265.68 276.419 265.218 276.554L265.392 276.503Z" fill="#E2F0FA" fill-opacity="0.8"/>
<path d="M36.3636 629.455C36.3636 631.383 35.5974 633.233 34.2335 634.597C32.8696 635.961 31.0198 636.727 29.0909 636.727H10.9091C8.98024 636.727 7.1304 635.961 5.7665 634.597C4.4026 633.233 3.63636 631.383 3.63636 629.455H36.3636ZM36.3636 618.545H3.63636C2.67194 618.545 1.74702 618.929 1.06507 619.611C0.383116 620.292 0 621.217 0 622.182C0 623.146 0.383116 624.071 1.06507 624.753C1.74702 625.435 2.67194 625.818 3.63636 625.818H36.3636C37.3281 625.818 38.253 625.435 38.9349 624.753C39.6169 624.071 40 623.146 40 622.182C40 621.217 39.6169 620.292 38.9349 619.611C38.253 618.929 37.3281 618.545 36.3636 618.545ZM31.0909 604H8.94545C7.5374 604 6.18701 604.559 5.19136 605.555C4.19571 606.551 3.63636 607.901 3.63636 609.309V614.909H36.3636V609.345C36.3684 608.648 36.2358 607.957 35.9735 607.311C35.7111 606.665 35.324 606.077 34.8344 605.581C34.3448 605.084 33.7622 604.689 33.1199 604.418C32.4776 604.147 31.7881 604.005 31.0909 604ZM12.9091 611.273C12.544 611.309 12.1763 611.235 11.8544 611.059C11.5324 610.882 11.2714 610.613 11.1055 610.286C10.9396 609.958 10.8766 609.588 10.9249 609.225C10.9732 608.861 11.1304 608.52 11.3759 608.247C11.6213 607.975 11.9436 607.782 12.3003 607.696C12.6571 607.61 13.0315 607.634 13.3744 607.765C13.7174 607.895 14.0128 608.126 14.2218 608.428C14.4308 608.73 14.5436 609.088 14.5455 609.455C14.5455 609.937 14.3539 610.399 14.0129 610.74C13.6719 611.081 13.2095 611.273 12.7273 611.273H12.9091ZM27.4545 611.273C27.0894 611.309 26.7217 611.235 26.3998 611.059C26.0779 610.882 25.8168 610.613 25.651 610.286C25.4851 609.958 25.4221 609.588 25.4704 609.225C25.5186 608.861 25.6758 608.52 25.9213 608.247C26.1668 607.975 26.4891 607.782 26.8458 607.696C27.2025 607.61 27.5769 607.634 27.9199 607.765C28.2628 607.895 28.5582 608.126 28.7672 608.428C28.9762 608.73 29.0891 609.088 29.0909 609.455C29.0909 609.937 28.8994 610.399 28.5584 610.74C28.2174 611.081 27.7549 611.273 27.2727 611.273H27.4545Z" fill="#E2F0FA" fill-opacity="0.8"/>
<path d="M95.4626 109.175C94.306 110.719 92.5836 111.74 90.6743 112.013C88.765 112.287 86.8251 111.791 85.2815 110.635L70.7305 99.7327C69.1869 98.5762 68.1659 96.8538 67.8922 94.9445C67.6184 93.0352 68.1144 91.0953 69.2709 89.5516L95.4626 109.175ZM102.004 100.444L75.812 80.8211C75.0402 80.2428 74.0702 79.9949 73.1156 80.1317C72.1609 80.2686 71.2997 80.7791 70.7214 81.5509C70.1432 82.3227 69.8952 83.2927 70.0321 84.2473C70.1689 85.202 70.6794 86.0632 71.4513 86.6415L97.6429 106.265C98.4147 106.843 99.3847 107.091 100.339 106.954C101.294 106.817 102.155 106.307 102.733 105.535C103.312 104.763 103.56 103.793 103.423 102.838C103.286 101.884 102.775 101.023 102.004 100.444ZM106.505 85.6421L88.7823 72.3637C87.6554 71.5194 86.2393 71.1574 84.8455 71.3572C83.4517 71.557 82.1944 72.3024 81.3501 73.4292L77.9923 77.9109L104.184 97.5342L107.52 93.0816C107.942 92.5265 108.25 91.8937 108.428 91.2194C108.605 90.5451 108.648 89.8425 108.553 89.1517C108.459 88.4609 108.23 87.7954 107.878 87.1932C107.527 86.591 107.06 86.0639 106.505 85.6421ZM87.5937 80.5606C87.2795 80.3711 87.03 80.0909 86.878 79.7568C86.726 79.4228 86.6786 79.0506 86.7422 78.6892C86.8057 78.3278 86.9771 77.994 87.2338 77.7318C87.4905 77.4696 87.8206 77.2912 88.1806 77.2201C88.5407 77.149 88.9138 77.1885 89.2509 77.3334C89.588 77.4784 89.8735 77.7219 90.0696 78.0321C90.2657 78.3422 90.3634 78.7045 90.3498 79.0712C90.3362 79.4379 90.212 79.7919 89.9934 80.0867C89.7043 80.4726 89.2737 80.7279 88.7964 80.7963C88.319 80.8648 87.8341 80.7408 87.4482 80.4516L87.5937 80.5606ZM99.2344 89.2821C98.9202 89.0925 98.6707 88.8123 98.5187 88.4783C98.3667 88.1443 98.3194 87.7721 98.3829 87.4106C98.4464 87.0492 98.6178 86.7154 98.8745 86.4532C99.1313 86.191 99.4613 86.0127 99.8214 85.9416C100.181 85.8705 100.554 85.91 100.892 86.0549C101.229 86.1998 101.514 86.4433 101.71 86.7535C101.906 87.0637 102.004 87.4259 101.991 87.7926C101.977 88.1594 101.853 88.5134 101.634 88.8082C101.345 89.1941 100.914 89.4493 100.437 89.5178C99.9598 89.5862 99.4748 89.4622 99.0889 89.1731L99.2344 89.2821Z" fill="#E2F0FA" fill-opacity="0.8"/>
<path d="M185.876 497.079L181.285 533H165.779L161.207 496.9H180.137L183.879 484L186 484.638L182.41 497.052L185.876 497.079ZM159.015 517.861C159.015 517.861 159.595 513.203 151.554 513.203H138.749C130.72 513.203 131.288 517.861 131.288 517.861H159.015ZM131.288 528.342C131.288 528.342 130.72 533 138.749 533H151.555C159.596 533 159.016 528.342 159.016 528.342H131.288ZM157.812 526.013C159.128 526.013 160.191 524.716 160.191 523.103C160.191 521.48 159.128 520.19 157.812 520.19H132.38C131.07 520.19 130 521.48 130 523.103C130 524.716 131.07 526.013 132.38 526.013H157.812Z" fill="#E2F0FA" fill-opacity="0.8"/>
<path d="M59.3137 293.602L64.841 329.391L49.9402 333.682L35.558 300.256L53.7493 295.018L53.7756 281.587L55.9903 281.613L55.9754 294.536L59.3137 293.602ZM39.2512 321.006C39.2512 321.006 38.5195 316.369 30.7928 318.594L18.4874 322.137C10.7718 324.358 12.6067 328.677 12.6067 328.677L39.2512 321.006ZM15.5066 338.749C15.5066 338.749 16.2494 343.382 23.965 341.161L36.2715 337.617C43.9983 335.393 42.1522 331.077 42.1522 331.077L15.5066 338.749ZM40.3508 329.172C41.6154 328.808 42.2778 327.267 41.8316 325.717C41.3827 324.158 40.0044 323.212 38.7397 323.577L14.3004 330.613C13.0414 330.976 12.3704 332.512 12.8192 334.071C13.2655 335.62 14.6525 336.571 15.9115 336.209L40.3508 329.172Z" fill="#E2F0FA" fill-opacity="0.8"/>
<path d="M298.314 624.602L303.841 660.391L288.94 664.682L274.558 631.256L292.749 626.018L292.776 612.587L294.99 612.613L294.975 625.536L298.314 624.602ZM278.251 652.006C278.251 652.006 277.52 647.369 269.793 649.594L257.487 653.137C249.772 655.358 251.607 659.677 251.607 659.677L278.251 652.006ZM254.507 669.749C254.507 669.749 255.249 674.382 262.965 672.161L275.272 668.617C282.998 666.393 281.152 662.077 281.152 662.077L254.507 669.749ZM279.351 660.172C280.615 659.808 281.278 658.267 280.832 656.717C280.383 655.158 279.004 654.212 277.74 654.577L253.3 661.613C252.041 661.976 251.37 663.512 251.819 665.071C252.265 666.62 253.652 667.571 254.912 667.209L279.351 660.172Z" fill="#E2F0FA" fill-opacity="0.8"/>
<path d="M272.874 46.0124L246.213 70.5191L234.357 60.5254L254.128 29.976L268.602 42.1766L279.777 34.725L280.987 36.5799L270.241 43.758L272.874 46.0124ZM238.942 44.5905C238.942 44.5905 242.388 41.4026 236.24 36.2204L226.449 27.9673C220.31 22.7926 217.742 26.7205 217.742 26.7205L238.942 44.5905ZM210.987 34.7341C210.987 34.7341 207.55 37.9296 213.689 43.1042L223.481 51.358C229.629 56.5402 232.188 52.6049 232.188 52.6049L210.987 34.7341ZM232.769 50.0481C233.775 50.8963 235.424 50.5894 236.463 49.3562C237.509 48.1158 237.527 46.4442 236.521 45.5961L217.076 29.2051C216.074 28.3607 214.424 28.6577 213.379 29.8981C212.339 31.1313 212.321 32.8127 213.323 33.6571L232.769 50.0481Z" fill="#E2F0FA" fill-opacity="0.8"/>
</svg>
