<svg width="155" height="128" viewBox="0 0 155 128" fill="none" xmlns="http://www.w3.org/2000/svg">
<path d="M22.5887 116.197C52.7158 131.934 101.539 131.934 131.659 116.197C161.779 100.46 161.787 74.9549 131.659 59.2179C101.532 43.4809 52.7087 43.4845 22.5887 59.2179C-7.53133 74.9513 -7.52779 100.464 22.5887 116.197Z" fill="#F5F5F5"/>
<path d="M13.6534 91.1108H14.9222C15.5038 89.1688 15.885 87.1724 16.06 85.1527C16.3364 81.4134 14.5253 75.6893 11.2077 73.7718C7.89021 71.8543 6.09322 74.2255 7.20615 76.2528C8.31908 78.2802 12.0726 84.0469 12.1222 89.009L13.6534 91.1108Z" fill="#BA68C8"/>
<path d="M13.3485 91.1107H13.703C14.0493 88.6619 14.0493 86.1766 13.703 83.7278C13.1288 78.8756 11.5338 76.6214 10.0523 75.0548C10.0198 75.0204 9.97509 75.0004 9.9279 74.9991C9.88071 74.9978 9.83492 75.0152 9.80061 75.0477C9.7663 75.0801 9.74627 75.1248 9.74494 75.172C9.74361 75.2192 9.76109 75.265 9.79352 75.2993C11.2361 76.8199 12.7885 79.0174 13.3379 83.7668C13.689 86.2019 13.6926 88.6746 13.3485 91.1107V91.1107Z" fill="white"/>
<path d="M13.7562 91.1105C13.1041 88.034 10.141 84.3762 7.34448 83.7453C4.10138 83.0364 2.52414 84.7484 2.98845 86.2264C3.45276 87.7044 6.01534 88.392 8.50348 89.551C9.34129 89.9388 10.1071 90.4661 10.7683 91.1105H13.7562Z" fill="#BA68C8"/>
<path d="M12.5759 91.1104H12.9551C11.5835 87.6617 8.46443 85.2019 5.91249 84.9751C5.88939 84.9726 5.86603 84.9749 5.8438 84.9816C5.82157 84.9884 5.80093 84.9995 5.78308 85.0144C5.76523 85.0292 5.75055 85.0475 5.73991 85.0682C5.72926 85.0888 5.72286 85.1114 5.72109 85.1346C5.71814 85.1578 5.71999 85.1813 5.72654 85.2038C5.73309 85.2262 5.74419 85.247 5.75916 85.265C5.77412 85.283 5.79263 85.2977 5.81352 85.3081C5.83442 85.3186 5.85725 85.3247 5.88059 85.326C8.29076 85.5422 11.2361 87.8531 12.5759 91.1104Z" fill="white"/>
<path d="M128.172 58.683L130.826 60.076L131.05 58.4137C129.735 54.7062 130.816 50.5026 132.237 48.7517C133.658 47.0008 133.386 45.7142 132.872 45.14C132.358 44.5658 130.408 44.1299 128.48 46.3841C126.552 48.6383 126.109 51.3745 126.431 54.1356C126.637 55.8617 127.544 57.6339 128.172 58.683Z" fill="#BA68C8"/>
<path opacity="0.2" d="M128.172 58.683L130.826 60.076L131.05 58.4137C129.735 54.7062 130.816 50.5026 132.237 48.7517C133.658 47.0008 133.386 45.7142 132.872 45.14C132.358 44.5658 130.408 44.1299 128.48 46.3841C126.552 48.6383 126.109 51.3745 126.431 54.1356C126.637 55.8617 127.544 57.6339 128.172 58.683Z" fill="black"/>
<path d="M129.267 59.2573L129.791 59.5337C129.786 59.5238 129.78 59.5143 129.774 59.5054C129.022 58.6122 128.051 54.2385 128.459 51.6759C128.962 48.5108 130.585 46.4444 131.975 45.5689C131.992 45.5585 132.007 45.5447 132.018 45.5284C132.03 45.5121 132.038 45.4937 132.042 45.4742C132.047 45.4547 132.047 45.4345 132.043 45.4148C132.04 45.3952 132.032 45.3765 132.021 45.3598C131.998 45.326 131.964 45.3022 131.924 45.2936C131.884 45.285 131.843 45.2922 131.808 45.3138C130.39 46.2247 128.675 48.3619 128.154 51.6298C127.778 54.0152 128.53 57.7935 129.267 59.2573Z" fill="white"/>
<path d="M130.88 52.3559C131.656 54.2592 131.652 55.1914 130.387 55.3863C129.246 55.5564 127.86 56.9423 129.146 59.1929L136.675 63.1414C136.694 62.7206 136.798 62.308 136.98 61.9285C137.163 61.549 137.421 61.2104 137.738 60.9332C138.975 59.6962 140.116 58.7641 139.939 57.3889C139.762 56.0136 138.567 54.6881 138.369 53.4901C138.17 52.2921 138.78 51.608 140.081 50.2647C141.382 48.9214 142.562 46.8373 140.825 45.8874C139.088 44.9375 137.1 46.5644 136.271 47.6596C135.441 48.7548 134.683 49.2368 133.049 49.1447C131.415 49.0525 130.103 50.4525 130.88 52.3559Z" fill="#BA68C8"/>
<path d="M133.01 61.2207C132.974 55.3796 137.16 48.539 139.489 47.1567C139.523 47.1347 139.548 47.1005 139.558 47.0609C139.568 47.0214 139.562 46.9795 139.542 46.944C139.521 46.9099 139.487 46.8853 139.448 46.8754C139.409 46.8655 139.368 46.871 139.333 46.8908C136.972 48.3086 132.751 55.1527 132.705 61.0683L133.01 61.2207Z" fill="white"/>
<path d="M134.13 55.1492C134.098 55.1565 134.064 55.1528 134.035 55.1387C134.005 55.1245 133.981 55.1007 133.967 55.0713C133.291 53.8098 132.721 52.4937 132.265 51.137C132.259 51.1179 132.257 51.0978 132.259 51.0779C132.261 51.0579 132.266 51.0385 132.275 51.0208C132.285 51.003 132.297 50.9872 132.313 50.9743C132.328 50.9614 132.346 50.9517 132.365 50.9456C132.384 50.9396 132.404 50.9373 132.424 50.939C132.444 50.9407 132.463 50.9464 132.481 50.9556C132.499 50.9648 132.514 50.9774 132.527 50.9927C132.54 51.0081 132.55 51.0258 132.556 51.0449C133.008 52.3828 133.57 53.6809 134.236 54.9259C134.255 54.9622 134.259 55.0044 134.247 55.0435C134.235 55.0827 134.208 55.1155 134.172 55.135L134.13 55.1492Z" fill="white"/>
<path d="M133.123 58.7293C133.094 58.7346 133.064 58.7318 133.037 58.7212C133.009 58.7106 132.985 58.6925 132.967 58.669C132.944 58.6351 132.935 58.5934 132.942 58.5529C132.949 58.5124 132.972 58.4764 133.006 58.4528C134.532 57.3842 136.384 56.8827 138.241 57.0351C138.282 57.0402 138.318 57.0612 138.343 57.0935C138.368 57.1257 138.379 57.1665 138.374 57.207C138.369 57.2474 138.348 57.2841 138.316 57.309C138.283 57.3339 138.243 57.345 138.202 57.3399C136.424 57.2046 134.653 57.681 133.183 58.6903C133.166 58.7072 133.146 58.7204 133.123 58.7293V58.7293Z" fill="white"/>
<path d="M88.6413 23.0475L80.0037 18.0605L71.3696 23.0475L80.0037 28.0344L88.6413 23.0475Z" fill="#F5F5F5"/>
<path d="M80.0039 38.0117L88.6415 33.0247V23.0474L80.0039 28.0343V38.0117Z" fill="#EBEBEB"/>
<path d="M81.6696 34.7012C81.6239 34.702 81.5788 34.691 81.5385 34.6693C81.4834 34.629 81.4395 34.5753 81.4109 34.5133C81.3824 34.4512 81.3702 34.3829 81.3755 34.3149V33.2515V33.1736H81.4286L82.258 32.688V33.8683C82.2569 34.0203 82.2192 34.1698 82.1483 34.3042C82.0774 34.4387 81.9752 34.5542 81.8504 34.6409C81.7968 34.6771 81.7343 34.698 81.6696 34.7012ZM81.5101 33.3295V34.3078C81.5042 34.3533 81.5099 34.3996 81.5267 34.4423C81.5434 34.4851 81.5706 34.5229 81.6059 34.5523C81.6346 34.5651 81.6662 34.5699 81.6974 34.5662C81.7286 34.5625 81.7582 34.5503 81.7831 34.5311C81.8892 34.457 81.9765 34.3591 82.0381 34.2453C82.0996 34.1314 82.1337 34.0047 82.1375 33.8754V33.7903H81.8292L81.7689 33.3756L81.5101 33.3295ZM81.9355 33.6556H82.1269V32.929L81.6307 33.2161L81.8752 33.2622L81.9355 33.6556Z" fill="white"/>
<path d="M81.8187 35.5448C81.8008 35.5448 81.7837 35.5377 81.771 35.5251C81.7584 35.5125 81.7513 35.4953 81.7513 35.4775V34.5914C81.7508 34.5824 81.7522 34.5734 81.7554 34.565C81.7586 34.5566 81.7635 34.549 81.7699 34.5426C81.7763 34.5362 81.7839 34.5313 81.7923 34.5281C81.8007 34.5249 81.8097 34.5235 81.8187 34.524C81.8365 34.524 81.8537 34.5311 81.8663 34.5438C81.8789 34.5564 81.886 34.5735 81.886 34.5914V35.4633C81.8875 35.4732 81.8869 35.4832 81.8843 35.4928C81.8816 35.5025 81.8769 35.5114 81.8706 35.5191C81.8642 35.5268 81.8563 35.5331 81.8474 35.5375C81.8384 35.5419 81.8286 35.5444 81.8187 35.5448Z" fill="white"/>
<path d="M81.4323 35.7682C81.4205 35.7681 81.409 35.7647 81.399 35.7585C81.3889 35.7522 81.3809 35.7433 81.3756 35.7327C81.3707 35.7255 81.3674 35.7172 81.366 35.7086C81.3646 35.7 81.3651 35.6911 81.3675 35.6827C81.3698 35.6742 81.374 35.6664 81.3797 35.6598C81.3854 35.6531 81.3925 35.6478 81.4004 35.6441L82.1696 35.1975C82.1772 35.1931 82.1857 35.1902 82.1945 35.1891C82.2033 35.1879 82.2122 35.1885 82.2208 35.1908C82.2293 35.1931 82.2374 35.1971 82.2444 35.2025C82.2514 35.2079 82.2573 35.2146 82.2617 35.2223C82.2698 35.238 82.2717 35.2562 82.2671 35.2732C82.2625 35.2903 82.2518 35.305 82.2369 35.3145L81.4642 35.7575L81.4323 35.7682Z" fill="white"/>
<path d="M84.1829 34.237C84.1586 34.2444 84.1327 34.2444 84.1084 34.237C84.0826 34.2196 84.0617 34.1957 84.048 34.1677C84.0343 34.1397 84.0283 34.1086 84.0305 34.0775V33.8967C84.03 33.8881 84.0313 33.8794 84.0343 33.8712C84.0372 33.8631 84.0419 33.8556 84.0478 33.8493C84.0538 33.843 84.061 33.838 84.069 33.8346C84.077 33.8311 84.0856 33.8294 84.0943 33.8294C84.1032 33.8289 84.1122 33.8303 84.1206 33.8335C84.129 33.8367 84.1367 33.8416 84.143 33.848C84.1494 33.8543 84.1543 33.862 84.1575 33.8704C84.1607 33.8788 84.1621 33.8878 84.1616 33.8967V34.0456C84.1616 34.074 84.1616 34.0881 84.1616 34.0881C84.1616 34.0881 84.1829 34.0881 84.2041 34.0881C84.2454 34.0507 84.278 34.0046 84.2994 33.9531C84.3208 33.9017 84.3307 33.8461 84.3282 33.7904V32.6279C84.3282 32.6192 84.3299 32.6106 84.3334 32.6026C84.3368 32.5946 84.3418 32.5874 84.3481 32.5814C84.3544 32.5755 84.3619 32.5708 84.37 32.5679C84.3782 32.5649 84.3869 32.5636 84.3955 32.5641C84.4125 32.5641 84.4287 32.5708 84.4406 32.5827C84.4526 32.5947 84.4593 32.6109 84.4593 32.6279V33.8117C84.462 33.8906 84.4464 33.969 84.4138 34.041C84.3812 34.1129 84.3325 34.1763 84.2715 34.2264C84.2429 34.2355 84.2128 34.2391 84.1829 34.237V34.237Z" fill="white"/>
<path d="M83.481 33.2056V33.0921C83.4975 32.797 83.5831 32.5098 83.7308 32.2537C83.8786 31.9976 84.0843 31.7797 84.3316 31.6177C84.4201 31.5432 84.5293 31.4978 84.6445 31.4876C84.7597 31.4773 84.8752 31.5028 84.9755 31.5604C85.0757 31.6181 85.1558 31.7052 85.2048 31.8099C85.2538 31.9146 85.2695 32.0319 85.2496 32.1458V32.1848L83.481 33.2056ZM84.7286 31.6319C84.6114 31.6355 84.4975 31.6711 84.399 31.7347C84.1885 31.8735 84.01 32.0557 83.8755 32.269C83.7411 32.4823 83.6537 32.7218 83.6192 32.9716L85.1149 32.1104C85.1206 32.0267 85.1047 31.943 85.0687 31.8673C85.0327 31.7916 84.9778 31.7264 84.9093 31.6779C84.8543 31.6467 84.7919 31.6308 84.7286 31.6319V31.6319Z" fill="white"/>
<path d="M86.5537 32.8763C86.5364 32.8764 86.5198 32.8698 86.5073 32.8579C86.4947 32.846 86.4872 32.8298 86.4863 32.8125V30.5512C86.4863 30.5334 86.4934 30.5162 86.5061 30.5036C86.5187 30.491 86.5358 30.4839 86.5537 30.4839C86.5715 30.4839 86.5887 30.491 86.6013 30.5036C86.6139 30.5162 86.621 30.5334 86.621 30.5512V32.8125C86.6201 32.8298 86.6126 32.846 86.6001 32.8579C86.5875 32.8698 86.5709 32.8764 86.5537 32.8763V32.8763Z" fill="white"/>
<path d="M86.3729 31.0651H86.3481C86.3399 31.0616 86.3325 31.0566 86.3263 31.0502C86.3201 31.0439 86.3152 31.0364 86.3119 31.0282C86.3087 31.0199 86.307 31.0111 86.3071 31.0023C86.3073 30.9934 86.3091 30.9846 86.3126 30.9765L86.5501 30.4307L86.8124 30.7355C86.818 30.742 86.8222 30.7495 86.8249 30.7577C86.8275 30.7659 86.8286 30.7745 86.8279 30.783C86.8273 30.7916 86.8249 30.7999 86.8211 30.8076C86.8172 30.8152 86.8118 30.822 86.8053 30.8276C86.7988 30.8332 86.7912 30.8375 86.7831 30.8401C86.7749 30.8428 86.7663 30.8438 86.7578 30.8432C86.7492 30.8425 86.7409 30.8402 86.7332 30.8363C86.7255 30.8324 86.7187 30.8271 86.7131 30.8205L86.5855 30.6788L86.4331 31.0332C86.4271 31.0437 86.4183 31.0522 86.4076 31.0579C86.397 31.0635 86.3849 31.066 86.3729 31.0651Z" fill="white"/>
<path d="M87.1813 32.5285C87.164 32.5276 87.1478 32.5201 87.1359 32.5076C87.1241 32.4951 87.1175 32.4784 87.1175 32.4612V30.1999C87.1152 30.19 87.1151 30.1797 87.1174 30.1698C87.1196 30.1599 87.124 30.1506 87.1303 30.1427C87.1366 30.1347 87.1446 30.1283 87.1538 30.1239C87.1629 30.1195 87.1729 30.1172 87.1831 30.1172C87.1932 30.1172 87.2032 30.1195 87.2124 30.1239C87.2215 30.1283 87.2295 30.1347 87.2358 30.1427C87.2421 30.1506 87.2466 30.1599 87.2488 30.1698C87.251 30.1797 87.2509 30.19 87.2486 30.1999V32.4612C87.2486 32.479 87.2415 32.4962 87.2289 32.5088C87.2163 32.5214 87.1991 32.5285 87.1813 32.5285Z" fill="white"/>
<path d="M86.9862 30.714H86.9614C86.9532 30.7106 86.9458 30.7055 86.9396 30.6992C86.9334 30.6928 86.9285 30.6853 86.9252 30.6771C86.9219 30.6689 86.9203 30.6601 86.9204 30.6512C86.9205 30.6423 86.9224 30.6336 86.9259 30.6254L87.1634 30.0796L87.4257 30.3844C87.4374 30.3969 87.4439 30.4134 87.4439 30.4305C87.4439 30.4476 87.4374 30.4641 87.4257 30.4766C87.4126 30.4885 87.3955 30.4951 87.3778 30.4951C87.3601 30.4951 87.343 30.4885 87.33 30.4766L87.2059 30.3312L87.0535 30.6857C87.0462 30.6964 87.036 30.7048 87.024 30.7098C87.0121 30.7148 86.9989 30.7163 86.9862 30.714V30.714Z" fill="white"/>
<path d="M80.0038 38.0117L71.3662 33.0247L71.3698 23.0474L80.0038 28.0343V38.0117Z" fill="#E0E0E0"/>
<path d="M76.1548 25.8123L84.7853 20.8219L83.8106 20.2583L75.1765 25.2488L76.1548 25.8123Z" fill="white"/>
<path d="M72.6776 28.7679L75.7719 30.5401C75.9498 30.6573 76.0979 30.8145 76.2044 30.9991C76.3108 31.1837 76.3727 31.3907 76.385 31.6034V33.5103C76.385 33.9037 76.1086 34.0632 75.7719 33.8647L72.6776 32.0925C72.4995 31.9755 72.3512 31.8184 72.2447 31.6337C72.1383 31.4491 72.0765 31.242 72.0645 31.0292V29.1224C72.0645 28.7289 72.3409 28.573 72.6776 28.7679Z" fill="#BA68C8"/>
<path d="M72.4399 29.2432L72.5569 29.3141V31.43L72.4399 31.3627V29.2432Z" fill="#BA68C8"/>
<path d="M72.9187 29.5195L73.1207 29.64V31.756L72.9187 31.6391V29.5195Z" fill="#BA68C8"/>
<path d="M73.3972 29.7959L73.5142 29.8632V31.9828L73.3972 31.9154V29.7959Z" fill="#BA68C8"/>
<path d="M73.7551 30.0015L73.9926 30.1397V32.2592L73.7551 32.1175V30.0015Z" fill="#BA68C8"/>
<path d="M74.3506 30.3491L74.4711 30.4165V32.536L74.3506 32.4651V30.3491Z" fill="#BA68C8"/>
<path d="M74.6979 30.5435L74.946 30.6923V32.8083L74.6943 32.6594L74.6979 30.5435Z" fill="#BA68C8"/>
<path d="M75.3076 30.9014L75.4246 30.9687V33.0847L75.3076 33.0174V30.9014Z" fill="#BA68C8"/>
<path d="M75.5806 31.0542L75.6408 31.0896V33.2056L75.5806 33.1737V31.0542Z" fill="#BA68C8"/>
<path d="M75.0913 30.7852L75.148 30.8206V32.9366L75.0913 32.9047V30.7852Z" fill="#BA68C8"/>
<path d="M74.1272 30.2212L74.1839 30.2531V32.3726L74.1272 32.3372V30.2212Z" fill="#BA68C8"/>
<path d="M73.5991 29.9165L73.6594 29.9519V32.0715L73.5991 32.036V29.9165Z" fill="#BA68C8"/>
<path d="M73.22 29.707L73.2802 29.7425V31.862L73.22 31.8266V29.707Z" fill="#BA68C8"/>
<path d="M72.7058 29.3955L72.7661 29.4309V31.5505L72.7058 31.515V29.3955Z" fill="#BA68C8"/>
<path d="M75.7859 31.1748L75.9029 31.2421V33.3617L75.7859 33.2943V31.1748Z" fill="#BA68C8"/>
<path d="M77.1258 21.3851L67.0456 15.5688L56.969 21.3851L67.0456 27.205L77.1258 21.3851Z" fill="#F5F5F5"/>
<path d="M62.7252 24.7094L72.8054 18.8931L71.8271 18.3296L61.7505 24.1459L62.7252 24.7094Z" fill="white"/>
<path d="M67.0457 45.4905L77.1258 39.6742V21.3853L67.0457 27.2051V45.4905Z" fill="#EBEBEB"/>
<path d="M68.7116 42.1979C68.6654 42.1987 68.62 42.1864 68.5805 42.1625C68.5246 42.1229 68.4801 42.0693 68.4514 42.0071C68.4228 41.9449 68.4111 41.8762 68.4175 41.808V40.7447V40.6667H68.4742L69.3 40.1812V41.3614C69.2983 41.5133 69.2604 41.6626 69.1895 41.797C69.1186 41.9313 69.0168 42.0469 68.8924 42.1341C68.8391 42.1716 68.7766 42.1936 68.7116 42.1979V42.1979ZM68.5521 40.8262V41.8045C68.5462 41.85 68.5519 41.8963 68.5686 41.939C68.5854 41.9818 68.6126 42.0196 68.6478 42.049C68.6765 42.0619 68.7082 42.0667 68.7394 42.0629C68.7706 42.0592 68.8002 42.047 68.8251 42.0278C68.9312 41.9537 69.0185 41.8558 69.0801 41.742C69.1416 41.6281 69.1757 41.5014 69.1795 41.3721V41.287H68.8711L68.8109 40.8723L68.5521 40.8262ZM68.9775 41.1523H69.1866V40.4257L68.6904 40.7164L68.9349 40.7589L68.9775 41.1523Z" fill="white"/>
<path d="M68.8603 43.0272C68.8425 43.0272 68.8253 43.0201 68.8127 43.0075C68.8001 42.9949 68.793 42.9777 68.793 42.9599V42.0702C68.793 42.0616 68.7947 42.053 68.7981 42.045C68.8016 42.037 68.8066 42.0298 68.8129 42.0238C68.8192 42.0179 68.8267 42.0132 68.8348 42.0102C68.843 42.0073 68.8516 42.006 68.8603 42.0064C68.8776 42.0064 68.8942 42.013 68.9067 42.0249C68.9193 42.0368 68.9267 42.053 68.9277 42.0702V42.9599C68.9268 42.9775 68.9194 42.9941 68.907 43.0065C68.8945 43.019 68.8779 43.0264 68.8603 43.0272V43.0272Z" fill="white"/>
<path d="M68.4777 43.2612C68.4662 43.2615 68.4549 43.2586 68.4449 43.253C68.435 43.2474 68.4267 43.2392 68.4209 43.2293C68.4129 43.2136 68.4109 43.1955 68.4155 43.1784C68.4201 43.1614 68.4309 43.1467 68.4458 43.1372L69.2149 42.6941C69.2226 42.6897 69.231 42.6868 69.2398 42.6856C69.2486 42.6845 69.2576 42.6851 69.2661 42.6874C69.2747 42.6897 69.2827 42.6937 69.2897 42.6991C69.2968 42.7045 69.3026 42.7112 69.307 42.7189C69.3114 42.7263 69.3142 42.7345 69.3153 42.7431C69.3164 42.7516 69.3158 42.7602 69.3135 42.7685C69.3112 42.7768 69.3072 42.7845 69.3019 42.7912C69.2965 42.7979 69.2898 42.8035 69.2822 42.8075L68.5096 43.2541C68.4999 43.2598 68.4888 43.2623 68.4777 43.2612V43.2612Z" fill="white"/>
<path d="M71.2244 41.7192C71.1985 41.7193 71.173 41.7132 71.1499 41.7015C71.1241 41.6841 71.1032 41.6602 71.0895 41.6322C71.0758 41.6042 71.0698 41.5731 71.072 41.542V41.3577C71.072 41.349 71.0737 41.3404 71.0771 41.3324C71.0806 41.3245 71.0856 41.3173 71.0919 41.3113C71.0982 41.3053 71.1057 41.3007 71.1138 41.2977C71.122 41.2947 71.1306 41.2934 71.1393 41.2939C71.1477 41.2939 71.156 41.2955 71.1637 41.2988C71.1715 41.302 71.1785 41.3067 71.1844 41.3126C71.1903 41.3185 71.195 41.3255 71.1982 41.3333C71.2015 41.341 71.2031 41.3493 71.2031 41.3577V41.542C71.2031 41.5668 71.2031 41.581 71.2031 41.5845C71.2031 41.5881 71.2244 41.5845 71.2456 41.5845C71.287 41.5464 71.3195 41.4997 71.341 41.4476C71.3624 41.3956 71.3722 41.3395 71.3697 41.2833V40.103C71.3697 40.0851 71.3768 40.068 71.3894 40.0554C71.402 40.0427 71.4192 40.0356 71.437 40.0356C71.4546 40.0365 71.4713 40.0439 71.4837 40.0563C71.4961 40.0688 71.5035 40.0854 71.5044 40.103V41.2833C71.5077 41.3626 71.4921 41.4416 71.4588 41.5138C71.4255 41.5859 71.3755 41.649 71.313 41.698C71.2854 41.7117 71.2551 41.719 71.2244 41.7192Z" fill="white"/>
<path d="M70.5225 40.6875V40.5705C70.5393 40.2759 70.625 39.9893 70.7727 39.7338C70.9205 39.4784 71.1261 39.2611 71.3731 39.0996C71.4616 39.0252 71.5708 38.9797 71.686 38.9695C71.8012 38.9593 71.9167 38.9847 72.017 39.0424C72.1172 39.1 72.1973 39.1871 72.2463 39.2918C72.2953 39.3965 72.311 39.5138 72.2911 39.6277V39.6667L70.5225 40.6875ZM71.7701 39.1103C71.6532 39.1156 71.5397 39.151 71.4405 39.213C71.2295 39.3523 71.0508 39.535 70.9164 39.7489C70.7819 39.9629 70.6947 40.2032 70.6607 40.4536L72.1564 39.5923C72.1617 39.5082 72.1456 39.4241 72.1097 39.3479C72.0737 39.2717 72.0191 39.2058 71.9508 39.1563C71.8954 39.1262 71.8332 39.1103 71.7701 39.1103V39.1103Z" fill="white"/>
<path d="M73.6098 40.3579C73.592 40.3579 73.5748 40.3508 73.5622 40.3382C73.5496 40.3255 73.5425 40.3084 73.5425 40.2906V38.0293C73.5425 38.0114 73.5496 37.9943 73.5622 37.9816C73.5748 37.969 73.592 37.9619 73.6098 37.9619C73.6277 37.9619 73.6448 37.969 73.6574 37.9816C73.6701 37.9943 73.6772 38.0114 73.6772 38.0293V40.2906C73.6772 40.3084 73.6701 40.3255 73.6574 40.3382C73.6448 40.3508 73.6277 40.3579 73.6098 40.3579Z" fill="white"/>
<path d="M73.415 38.5464H73.3902C73.3821 38.5433 73.3748 38.5386 73.3686 38.5326C73.3625 38.5266 73.3576 38.5194 73.3543 38.5115C73.351 38.5035 73.3493 38.495 73.3494 38.4864C73.3494 38.4778 73.3513 38.4693 73.3547 38.4614L73.5922 37.9155L73.8545 38.2203C73.8657 38.2335 73.8713 38.2506 73.87 38.2679C73.8687 38.2852 73.8605 38.3012 73.8474 38.3125C73.8342 38.3238 73.8171 38.3294 73.7998 38.328C73.7825 38.3267 73.7665 38.3186 73.7552 38.3054L73.6276 38.1601L73.4752 38.5145C73.4692 38.525 73.4604 38.5336 73.4497 38.5392C73.439 38.5448 73.427 38.5473 73.415 38.5464V38.5464Z" fill="white"/>
<path d="M74.2231 40.0068C74.2062 40.0068 74.1899 40.0001 74.178 39.9881C74.166 39.9762 74.1593 39.9599 74.1593 39.943V37.6817C74.1588 37.673 74.1601 37.6644 74.1631 37.6562C74.1661 37.648 74.1707 37.6406 74.1767 37.6343C74.1826 37.628 74.1898 37.623 74.1978 37.6195C74.2058 37.6161 74.2144 37.6143 74.2231 37.6144C74.2321 37.6138 74.241 37.6152 74.2494 37.6184C74.2578 37.6216 74.2655 37.6266 74.2718 37.6329C74.2782 37.6393 74.2831 37.6469 74.2863 37.6553C74.2895 37.6637 74.2909 37.6727 74.2904 37.6817V39.943C74.2904 39.9517 74.2887 39.9603 74.2852 39.9683C74.2818 39.9763 74.2768 39.9834 74.2705 39.9894C74.2642 39.9954 74.2567 40 74.2486 40.003C74.2404 40.006 74.2318 40.0073 74.2231 40.0068V40.0068Z" fill="white"/>
<path d="M74.0317 38.196H74.0033C73.9874 38.1883 73.975 38.1749 73.9684 38.1585C73.9619 38.1421 73.9617 38.1239 73.9679 38.1074L74.2053 37.5615L74.4712 37.8663C74.4822 37.8792 74.4882 37.8955 74.4882 37.9124C74.4882 37.9293 74.4822 37.9457 74.4712 37.9585C74.4649 37.9648 74.4575 37.9698 74.4492 37.9733C74.441 37.9767 74.4322 37.9784 74.4233 37.9784C74.4144 37.9784 74.4056 37.9767 74.3974 37.9733C74.3892 37.9698 74.3817 37.9648 74.3755 37.9585L74.2514 37.8132L74.099 38.1676C74.092 38.1787 74.0818 38.1873 74.0698 38.1924C74.0578 38.1975 74.0444 38.1987 74.0317 38.196Z" fill="white"/>
<path d="M67.0456 45.4905L56.969 39.6742V21.3853L67.0456 27.2051V45.4905Z" fill="#E0E0E0"/>
<path d="M59.0177 35.871L62.1084 37.6432C62.2872 37.7598 62.4362 37.9168 62.5433 38.1015C62.6504 38.2862 62.7127 38.4934 62.7251 38.7065V40.6169C62.7251 41.0068 62.4487 41.1663 62.1084 40.9714L59.0177 39.1992C58.839 39.0828 58.6903 38.9258 58.5837 38.741C58.4772 38.5562 58.4158 38.3489 58.4045 38.1359V36.229C58.4045 35.8179 58.681 35.6761 59.0177 35.871Z" fill="#F5F5F5"/>
<path d="M58.7803 36.3457L58.8972 36.4166V38.5326L58.7803 38.4652V36.3457Z" fill="#E0E0E0"/>
<path d="M59.2588 36.6226L59.4608 36.7431V38.8626L59.2588 38.7421V36.6226Z" fill="#E0E0E0"/>
<path d="M59.7336 36.8989L59.8541 36.9663L59.8506 39.0858L59.7336 39.0185V36.8989Z" fill="#E0E0E0"/>
<path d="M60.0952 37.104L60.3291 37.2422V39.3618L60.0952 39.22V37.104Z" fill="#E0E0E0"/>
<path d="M60.6907 37.4521L60.8076 37.5195V39.639L60.6907 39.5681V37.4521Z" fill="#E0E0E0"/>
<path d="M61.0344 37.6465L61.2861 37.7953V39.9113L61.0344 39.7625V37.6465Z" fill="#E0E0E0"/>
<path d="M61.6477 38.001L61.7647 38.0719V40.1878L61.6477 40.1205V38.001Z" fill="#E0E0E0"/>
<path d="M61.9204 38.1572L61.9807 38.1927V40.3122L61.9204 40.2768V38.1572Z" fill="#E0E0E0"/>
<path d="M61.4312 37.8877L61.4879 37.9231V40.0391L61.4312 40.0072V37.8877Z" fill="#E0E0E0"/>
<path d="M60.4673 37.3242L60.524 37.3561V39.4757L60.4673 39.4402V37.3242Z" fill="#E0E0E0"/>
<path d="M59.9392 37.019L59.9959 37.0545V39.174L59.9392 39.1386V37.019Z" fill="#E0E0E0"/>
<path d="M59.5598 36.8105L59.6201 36.846V38.9655L59.5598 38.9301V36.8105Z" fill="#E0E0E0"/>
<path d="M59.0461 36.498L59.1064 36.5335V38.653L59.0461 38.6176V36.498Z" fill="#E0E0E0"/>
<path d="M62.1262 38.2778L62.2432 38.3452V40.4647L62.1262 40.3974V38.2778Z" fill="#E0E0E0"/>
<path d="M61.7505 26.5065L62.7252 27.0701V24.7095L61.7505 24.146V26.5065Z" fill="#F0F0F0"/>
<path d="M46.8888 40.5036L39.6902 36.3496L29.6135 42.1659L36.8121 46.3235L46.8888 40.5036Z" fill="#F5F5F5"/>
<path d="M36.8123 62.9468L46.8889 57.1305V40.5039L36.8123 46.3238V62.9468Z" fill="#EBEBEB"/>
<path d="M38.4745 59.6398C38.4294 59.6407 38.3851 59.6284 38.3469 59.6043C38.2913 59.5645 38.247 59.5109 38.2184 59.4488C38.1898 59.3866 38.1779 59.3181 38.1839 59.2499V58.1866V58.1086H38.237L39.0664 57.623V58.8033C39.0647 58.9552 39.0268 59.1045 38.9559 59.2389C38.8851 59.3732 38.7832 59.4888 38.6588 59.576C38.6041 59.6131 38.5405 59.6351 38.4745 59.6398V59.6398ZM38.3186 58.2681V59.2464C38.312 59.2919 38.3173 59.3384 38.3341 59.3813C38.3509 59.4242 38.3785 59.4619 38.4143 59.4909C38.4433 59.5024 38.4746 59.5064 38.5056 59.5027C38.5365 59.499 38.566 59.4876 38.5915 59.4697C38.6976 59.3956 38.785 59.2977 38.8465 59.1839C38.9081 59.07 38.9421 58.9433 38.9459 58.814V58.7289H38.6376L38.5773 58.3142L38.3186 58.2681ZM38.7439 58.5942H38.9353V57.8641L38.4391 58.1547L38.6836 58.1972L38.7439 58.5942Z" fill="white"/>
<path d="M38.6269 60.4833C38.6091 60.4833 38.5919 60.4762 38.5793 60.4636C38.5667 60.4509 38.5596 60.4338 38.5596 60.4159V59.5263C38.5596 59.5176 38.5613 59.509 38.5647 59.501C38.5682 59.4931 38.5732 59.4859 38.5795 59.4799C38.5858 59.4739 38.5933 59.4693 38.6014 59.4663C38.6096 59.4633 38.6182 59.462 38.6269 59.4625C38.6438 59.4625 38.6601 59.4692 38.672 59.4812C38.684 59.4932 38.6907 59.5094 38.6907 59.5263V60.4159C38.6907 60.4332 38.6841 60.4498 38.6723 60.4623C38.6604 60.4749 38.6442 60.4824 38.6269 60.4833V60.4833Z" fill="white"/>
<path d="M38.2405 60.7026C38.229 60.7033 38.2175 60.7006 38.2075 60.695C38.1974 60.6893 38.1892 60.6809 38.1838 60.6707C38.1787 60.6634 38.1752 60.6551 38.1735 60.6464C38.1718 60.6376 38.172 60.6286 38.174 60.6199C38.176 60.6112 38.1798 60.6031 38.1852 60.5959C38.1905 60.5888 38.1973 60.5829 38.2051 60.5786L38.9777 60.1355C38.9854 60.1311 38.9939 60.1282 39.0027 60.127C39.0115 60.1259 39.0204 60.1265 39.029 60.1288C39.0375 60.1311 39.0455 60.1351 39.0526 60.1405C39.0596 60.1459 39.0655 60.1526 39.0699 60.1603C39.0743 60.1677 39.0771 60.1759 39.0782 60.1845C39.0793 60.193 39.0787 60.2016 39.0764 60.2099C39.074 60.2182 39.0701 60.2259 39.0647 60.2326C39.0593 60.2393 39.0527 60.2449 39.0451 60.2489L38.2724 60.6955C38.2628 60.7012 38.2516 60.7037 38.2405 60.7026V60.7026Z" fill="white"/>
<path d="M40.9912 59.175C40.9654 59.1751 40.9398 59.169 40.9168 59.1573C40.8909 59.1399 40.8701 59.116 40.8564 59.088C40.8427 59.06 40.8366 59.0289 40.8388 58.9978V58.8135C40.8388 58.7965 40.8455 58.7803 40.8575 58.7684C40.8695 58.7564 40.8857 58.7497 40.9026 58.7497C40.9113 58.7492 40.92 58.7505 40.9281 58.7535C40.9363 58.7565 40.9437 58.7611 40.95 58.7671C40.9563 58.773 40.9614 58.7802 40.9648 58.7882C40.9682 58.7962 40.97 58.8048 40.97 58.8135V58.9978C40.97 59.0226 40.97 59.0368 40.97 59.0403C40.97 59.0439 40.9912 59.0403 41.0125 59.0403C41.0531 59.0016 41.0852 58.9548 41.1065 58.9029C41.1279 58.851 41.1381 58.7951 41.1365 58.739V57.5588C41.1342 57.5489 41.1342 57.5386 41.1364 57.5287C41.1386 57.5188 41.143 57.5095 41.1493 57.5016C41.1556 57.4936 41.1637 57.4872 41.1728 57.4828C41.1819 57.4784 41.192 57.4761 41.2021 57.4761C41.2123 57.4761 41.2223 57.4784 41.2314 57.4828C41.2405 57.4872 41.2486 57.4936 41.2549 57.5016C41.2612 57.5095 41.2656 57.5188 41.2678 57.5287C41.27 57.5386 41.27 57.5489 41.2677 57.5588V58.739C41.2706 58.818 41.2551 58.8965 41.2226 58.9685C41.19 59.0404 41.1411 59.1039 41.0798 59.1537C41.0523 59.1675 41.022 59.1747 40.9912 59.175V59.175Z" fill="white"/>
<path d="M40.2893 58.147V58.03C40.3061 57.7354 40.3918 57.4488 40.5396 57.1933C40.6873 56.9379 40.8929 56.7206 41.14 56.5591C41.228 56.4839 41.3372 56.4378 41.4525 56.4272C41.5678 56.4165 41.6836 56.4419 41.7839 56.4999C41.8842 56.5578 41.9641 56.6454 42.0125 56.7506C42.0609 56.8558 42.0756 56.9734 42.0544 57.0872V57.1262L40.2893 58.147ZM41.5369 56.5698C41.42 56.5751 41.3065 56.6105 41.2073 56.6726C40.9964 56.8118 40.8177 56.9945 40.6832 57.2085C40.5487 57.4224 40.4615 57.6627 40.4275 57.9131L41.9233 57.0483C41.9283 56.9647 41.912 56.8812 41.8761 56.8056C41.8401 56.73 41.7856 56.6647 41.7177 56.6158C41.6636 56.585 41.6027 56.568 41.5405 56.5662L41.5369 56.5698Z" fill="white"/>
<path d="M43.3764 57.814C43.3586 57.814 43.3414 57.8069 43.3288 57.7942C43.3162 57.7816 43.3091 57.7645 43.3091 57.7466V55.4853C43.3091 55.4675 43.3162 55.4503 43.3288 55.4377C43.3414 55.4251 43.3586 55.418 43.3764 55.418C43.3943 55.418 43.4114 55.4251 43.424 55.4377C43.4367 55.4503 43.4438 55.4675 43.4438 55.4853V57.7466C43.4438 57.7645 43.4367 57.7816 43.424 57.7942C43.4114 57.8069 43.3943 57.814 43.3764 57.814V57.814Z" fill="white"/>
<path d="M43.1816 56.0205H43.1568C43.1487 56.0174 43.1414 56.0127 43.1352 56.0067C43.1291 56.0007 43.1242 55.9935 43.1209 55.9856C43.1176 55.9776 43.1159 55.9691 43.116 55.9605C43.116 55.9519 43.1179 55.9434 43.1213 55.9355L43.3588 55.3896L43.6211 55.6945C43.6323 55.7076 43.6379 55.7247 43.6366 55.742C43.6353 55.7593 43.6271 55.7753 43.614 55.7866C43.6075 55.7922 43.5999 55.7964 43.5918 55.7991C43.5836 55.8018 43.575 55.8028 43.5664 55.8022C43.5491 55.8008 43.5331 55.7927 43.5218 55.7795L43.3942 55.6342L43.2418 55.9886C43.2358 55.9991 43.227 56.0077 43.2163 56.0133C43.2056 56.019 43.1936 56.0215 43.1816 56.0205V56.0205Z" fill="white"/>
<path d="M43.9895 57.4634C43.9722 57.4634 43.9556 57.4568 43.9431 57.4449C43.9305 57.433 43.923 57.4168 43.9221 57.3996V55.1382C43.9221 55.1204 43.9292 55.1033 43.9418 55.0906C43.9545 55.078 43.9716 55.0709 43.9895 55.0709C43.9984 55.0704 44.0074 55.0718 44.0158 55.075C44.0242 55.0782 44.0319 55.0831 44.0382 55.0895C44.0446 55.0958 44.0495 55.1035 44.0527 55.1119C44.0559 55.1203 44.0573 55.1293 44.0568 55.1382V57.3996C44.0568 57.4082 44.0551 57.4168 44.0516 57.4248C44.0482 57.4328 44.0432 57.44 44.0369 57.446C44.0306 57.4519 44.0231 57.4566 44.015 57.4595C44.0068 57.4625 43.9981 57.4638 43.9895 57.4634Z" fill="white"/>
<path d="M43.7948 55.6661C43.7868 55.669 43.778 55.669 43.77 55.6661C43.762 55.6629 43.7547 55.6582 43.7485 55.6522C43.7424 55.6462 43.7375 55.639 43.7342 55.6311C43.7308 55.6231 43.7292 55.6146 43.7293 55.606C43.7293 55.5974 43.7311 55.5889 43.7346 55.581L43.9721 55.0352L44.2344 55.34C44.2461 55.3525 44.2526 55.3689 44.2526 55.3861C44.2526 55.4032 44.2461 55.4196 44.2344 55.4321C44.2281 55.4384 44.2206 55.4435 44.2124 55.4469C44.2042 55.4503 44.1954 55.4521 44.1865 55.4521C44.1776 55.4521 44.1688 55.4503 44.1606 55.4469C44.1524 55.4435 44.1449 55.4384 44.1387 55.4321L44.0146 55.2868L43.8622 55.6412C43.8544 55.6513 43.844 55.659 43.8321 55.6634C43.8202 55.6678 43.8073 55.6687 43.7948 55.6661V55.6661Z" fill="white"/>
<path d="M36.8121 62.9461L29.6135 58.7921V42.1655L36.8121 46.3231V62.9461Z" fill="#E0E0E0"/>
<path d="M32.9558 46.4577L33.9305 47.0213V44.6607L32.9558 44.0972V46.4577Z" fill="#F5F5F5"/>
<path d="M33.9305 44.6612L44.0107 38.8414L43.0324 38.2778L32.9558 44.0977L33.9305 44.6612Z" fill="white"/>
<path d="M33.9307 54.6349L20.976 47.1562L8.01782 54.6349L20.976 62.117L33.9307 54.6349Z" fill="#F5F5F5"/>
<path d="M20.9761 72.0912L33.9307 64.6126V54.6353L20.9761 62.1174V72.0912Z" fill="#EBEBEB"/>
<path d="M22.6382 68.7801C22.5933 68.7792 22.5494 68.767 22.5106 68.7446C22.4552 68.7046 22.4111 68.6509 22.3825 68.5888C22.354 68.5267 22.3419 68.4583 22.3475 68.3902V67.3269V67.2489H22.4007L23.2301 66.7598V67.9436C23.2278 68.0949 23.1897 68.2435 23.1188 68.3772C23.0479 68.5109 22.9464 68.6259 22.8225 68.7127C22.7679 68.7508 22.7044 68.774 22.6382 68.7801V68.7801ZM22.4787 67.4084V68.3866C22.4724 68.4316 22.4779 68.4775 22.4947 68.5198C22.5114 68.562 22.5389 68.5992 22.5744 68.6276C22.6034 68.6409 22.6354 68.6462 22.6672 68.6431C22.6989 68.64 22.7293 68.6286 22.7551 68.6099C22.8609 68.5355 22.9479 68.4375 23.0094 68.3237C23.0709 68.21 23.1052 68.0835 23.1096 67.9542V67.8656H22.7906L22.7303 67.4509L22.4787 67.4084ZM22.904 67.7345H23.1096V67.0079L22.6169 67.2985L22.8615 67.341L22.904 67.7345Z" fill="white"/>
<path d="M22.7872 69.624C22.7789 69.624 22.7706 69.6224 22.7628 69.6192C22.7551 69.616 22.7481 69.6113 22.7421 69.6053C22.7362 69.5994 22.7315 69.5924 22.7283 69.5846C22.7251 69.5769 22.7235 69.5686 22.7235 69.5602V68.6706C22.7211 68.6607 22.7211 68.6504 22.7233 68.6405C22.7255 68.6306 22.73 68.6213 22.7363 68.6134C22.7426 68.6054 22.7506 68.599 22.7597 68.5946C22.7689 68.5902 22.7789 68.5879 22.789 68.5879C22.7992 68.5879 22.8092 68.5902 22.8183 68.5946C22.8275 68.599 22.8355 68.6054 22.8418 68.6134C22.8481 68.6213 22.8525 68.6306 22.8547 68.6405C22.857 68.6504 22.8569 68.6607 22.8546 68.6706V69.5602C22.8546 69.5689 22.8528 69.5775 22.8494 69.5855C22.846 69.5935 22.841 69.6007 22.8347 69.6066C22.8284 69.6126 22.8209 69.6172 22.8128 69.6202C22.8046 69.6232 22.7959 69.6245 22.7872 69.624V69.624Z" fill="white"/>
<path d="M22.4008 69.844C22.3866 69.8431 22.373 69.8378 22.3621 69.8287C22.3511 69.8196 22.3433 69.8073 22.3398 69.7936C22.3362 69.7798 22.3371 69.7653 22.3424 69.752C22.3476 69.7388 22.3569 69.7276 22.3689 69.7199L23.1415 69.2769C23.1486 69.2719 23.1566 69.2684 23.1651 69.2667C23.1736 69.2651 23.1823 69.2653 23.1907 69.2673C23.1991 69.2693 23.207 69.2731 23.2138 69.2784C23.2206 69.2838 23.2262 69.2905 23.2302 69.2982C23.2352 69.3055 23.2387 69.3138 23.2404 69.3225C23.2421 69.3313 23.242 69.3403 23.24 69.349C23.238 69.3576 23.2342 69.3658 23.2288 69.3729C23.2235 69.3801 23.2167 69.386 23.2089 69.3903L22.4362 69.844H22.4008Z" fill="white"/>
<path d="M25.1512 68.3197C25.1279 68.3249 25.1037 68.3249 25.0803 68.3197C25.0532 68.3024 25.0314 68.2781 25.017 68.2494C25.0026 68.2207 24.9964 68.1886 24.9988 68.1566V67.9759C24.9988 67.958 25.0059 67.9409 25.0185 67.9282C25.0312 67.9156 25.0483 67.9085 25.0662 67.9085C25.084 67.9085 25.1011 67.9156 25.1138 67.9282C25.1264 67.9409 25.1335 67.958 25.1335 67.9759V68.1566C25.1286 68.1716 25.1286 68.1877 25.1335 68.2027C25.1335 68.2027 25.1548 68.2027 25.1796 68.2027C25.2196 68.1637 25.2509 68.1167 25.2717 68.0648C25.2925 68.0129 25.3021 67.9573 25.3001 67.9014V66.7212C25.3009 66.7036 25.3083 66.6869 25.3208 66.6745C25.3332 66.662 25.3498 66.6547 25.3674 66.6538C25.3853 66.6538 25.4024 66.6609 25.415 66.6735C25.4277 66.6862 25.4348 66.7033 25.4348 66.7212V67.9014C25.4377 67.9804 25.4222 68.0589 25.3896 68.1309C25.357 68.2028 25.3082 68.2662 25.2469 68.3161C25.2157 68.3248 25.183 68.326 25.1512 68.3197V68.3197Z" fill="white"/>
<path d="M24.4531 67.2886V67.1717C24.4685 66.8767 24.5536 66.5896 24.7015 66.3339C24.8494 66.0782 25.0558 65.8612 25.3038 65.7007C25.3918 65.6255 25.501 65.5794 25.6163 65.5688C25.7317 65.5581 25.8474 65.5836 25.9477 65.6415C26.048 65.6994 26.1279 65.787 26.1763 65.8922C26.2248 65.9974 26.2394 66.115 26.2182 66.2289V66.2678L24.4531 67.2886ZM25.7007 65.7114C25.5829 65.7174 25.4683 65.7527 25.3676 65.8142C25.1573 65.9537 24.9793 66.1366 24.8454 66.3506C24.7116 66.5645 24.6249 66.8046 24.5914 67.0547L26.0835 66.1899C26.0893 66.1066 26.0737 66.0232 26.0384 65.9476C26.003 65.8719 25.9491 65.8065 25.8815 65.7575C25.8264 65.7262 25.764 65.7103 25.7007 65.7114Z" fill="white"/>
<path d="M27.5401 66.9587C27.5311 66.9592 27.5221 66.9578 27.5137 66.9546C27.5053 66.9514 27.4977 66.9465 27.4913 66.9401C27.4849 66.9338 27.48 66.9261 27.4768 66.9177C27.4736 66.9093 27.4722 66.9003 27.4727 66.8914V64.6301C27.4704 64.6202 27.4704 64.6099 27.4726 64.6C27.4748 64.5901 27.4792 64.5808 27.4855 64.5729C27.4918 64.5649 27.4998 64.5585 27.509 64.5541C27.5181 64.5497 27.5281 64.5474 27.5383 64.5474C27.5484 64.5474 27.5585 64.5497 27.5676 64.5541C27.5767 64.5585 27.5848 64.5649 27.5911 64.5729C27.5974 64.5808 27.6018 64.5901 27.604 64.6C27.6062 64.6099 27.6062 64.6202 27.6039 64.6301V66.8914C27.6043 66.9 27.6031 66.9087 27.6001 66.9169C27.5971 66.925 27.5924 66.9325 27.5865 66.9388C27.5805 66.9451 27.5733 66.9501 27.5653 66.9535C27.5573 66.957 27.5487 66.9587 27.5401 66.9587V66.9587Z" fill="white"/>
<path d="M27.363 65.1476H27.3347C27.3265 65.1442 27.3191 65.1391 27.313 65.1327C27.3069 65.1263 27.3022 65.1187 27.2992 65.1103C27.2962 65.102 27.2949 65.0931 27.2956 65.0843C27.2962 65.0755 27.2986 65.0669 27.3028 65.059L27.5367 64.5132L27.8025 64.818C27.8143 64.8316 27.8201 64.8494 27.8188 64.8673C27.8175 64.8853 27.8091 64.9019 27.7954 64.9137C27.7818 64.9254 27.7641 64.9313 27.7461 64.93C27.7282 64.9286 27.7115 64.9202 27.6997 64.9066L27.5757 64.7613L27.4233 65.1157C27.417 65.1259 27.4081 65.1343 27.3975 65.1399C27.3869 65.1455 27.375 65.1481 27.363 65.1476V65.1476Z" fill="white"/>
<path d="M28.1535 66.6079C28.1357 66.6079 28.1185 66.6008 28.1059 66.5882C28.0933 66.5755 28.0862 66.5584 28.0862 66.5406V64.2793C28.0862 64.2614 28.0933 64.2443 28.1059 64.2316C28.1185 64.219 28.1357 64.2119 28.1535 64.2119C28.1714 64.2119 28.1885 64.219 28.2011 64.2316C28.2138 64.2443 28.2209 64.2614 28.2209 64.2793V66.5406C28.2209 66.5584 28.2138 66.5755 28.2011 66.5882C28.1885 66.6008 28.1714 66.6079 28.1535 66.6079V66.6079Z" fill="white"/>
<path d="M27.9584 64.7965H27.9336C27.9256 64.7934 27.9183 64.7887 27.9121 64.7827C27.9059 64.7767 27.901 64.7695 27.8977 64.7616C27.8944 64.7536 27.8927 64.7451 27.8928 64.7365C27.8929 64.7279 27.8947 64.7194 27.8982 64.7115L28.1356 64.1621L28.3979 64.4669C28.4042 64.4732 28.4093 64.4806 28.4127 64.4889C28.4161 64.4971 28.4179 64.5059 28.4179 64.5148C28.4179 64.5237 28.4161 64.5325 28.4127 64.5407C28.4093 64.5489 28.4042 64.5564 28.3979 64.5626C28.392 64.5688 28.3848 64.5738 28.3769 64.5772C28.369 64.5806 28.3605 64.5823 28.3518 64.5823C28.3432 64.5823 28.3347 64.5806 28.3268 64.5772C28.3189 64.5738 28.3117 64.5688 28.3058 64.5626L28.1782 64.4173L28.0258 64.7717C28.0183 64.7822 28.0079 64.7901 27.9959 64.7945C27.9839 64.7989 27.9708 64.7996 27.9584 64.7965V64.7965Z" fill="white"/>
<path d="M20.976 72.0912L8.01782 64.6126V54.6353L20.976 62.1174V72.0912Z" fill="#E0E0E0"/>
<path d="M14.0076 60.4548L14.9823 61.0183V58.6578L14.0076 58.0942V60.4548Z" fill="#F5F5F5"/>
<path d="M14.9823 58.6575L27.9405 51.1789L26.9658 50.6118L14.0076 58.094L14.9823 58.6575Z" fill="white"/>
<path d="M10.07 60.8095L13.1606 62.5816C13.3395 62.6983 13.4884 62.8553 13.5955 63.0399C13.7026 63.2246 13.7649 63.4318 13.7774 63.645V65.5554C13.7774 65.9452 13.5009 66.1047 13.1606 65.9098L10.07 64.1376C9.89122 64.0212 9.74252 63.8642 9.63596 63.6794C9.5294 63.4947 9.46801 63.2873 9.45679 63.0743V61.1674C9.45679 60.7705 9.73325 60.6287 10.07 60.8095Z" fill="#F5F5F5"/>
<path d="M9.83252 61.2842L9.94948 61.3515V63.4711L9.83252 63.4037V61.2842Z" fill="#E0E0E0"/>
<path d="M10.3076 61.5601L10.5132 61.6806V63.7966L10.3076 63.6796V61.5601Z" fill="#E0E0E0"/>
<path d="M10.7859 61.8369L10.9064 61.9043L10.9029 64.0238L10.7859 63.9564V61.8369Z" fill="#E0E0E0"/>
<path d="M11.1477 62.0425L11.3852 62.1807L11.3816 64.3002L11.1477 64.1585V62.0425Z" fill="#E0E0E0"/>
<path d="M11.7429 62.3896L11.8599 62.457V64.5765L11.7429 64.5056V62.3896Z" fill="#E0E0E0"/>
<path d="M12.0867 62.585L12.3383 62.7338V64.8498L12.0867 64.7009V62.585Z" fill="#E0E0E0"/>
<path d="M12.7 62.9429L12.8169 63.0102V65.1262L12.7 65.0589V62.9429Z" fill="#E0E0E0"/>
<path d="M12.9727 63.0952L13.0329 63.1307V65.2466L12.9727 65.2147V63.0952Z" fill="#E0E0E0"/>
<path d="M12.4836 62.8262L12.5404 62.8581V64.9776L12.4836 64.9457V62.8262Z" fill="#E0E0E0"/>
<path d="M11.5198 62.2622L11.5765 62.2941V64.4136L11.5198 64.3782V62.2622Z" fill="#E0E0E0"/>
<path d="M10.9915 61.9575L11.0517 61.993V64.109L10.9915 64.077V61.9575Z" fill="#E0E0E0"/>
<path d="M10.6123 61.748L10.6726 61.7835V63.903L10.6123 63.8676V61.748Z" fill="#E0E0E0"/>
<path d="M10.0984 61.4365L10.1586 61.472V63.588L10.0984 63.5561V61.4365Z" fill="#E0E0E0"/>
<path d="M13.1785 63.2153L13.2954 63.2862V65.4022L13.1785 65.3349V63.2153Z" fill="#E0E0E0"/>
<path d="M31.0528 34.687L20.9762 28.8672L10.896 34.687L20.9762 40.5033L31.0528 34.687Z" fill="#F5F5F5"/>
<path d="M20.9761 60.4545L31.0527 54.6347V34.687L20.9761 40.5033V60.4545Z" fill="#EBEBEB"/>
<path d="M22.6382 57.1441C22.5936 57.1444 22.5497 57.1335 22.5106 57.1122C22.4552 57.0721 22.4111 57.0184 22.3825 56.9564C22.354 56.8943 22.3419 56.8258 22.3475 56.7577V55.6944V55.6164H22.4007L23.2301 55.1309V56.3111C23.2281 56.463 23.1901 56.6122 23.1192 56.7465C23.0484 56.8808 22.9467 56.9964 22.8225 57.0838C22.7674 57.1197 22.7038 57.1404 22.6382 57.1441V57.1441ZM22.4787 55.7724V56.7542C22.4731 56.7992 22.4789 56.8448 22.4956 56.887C22.5124 56.9291 22.5394 56.9663 22.5744 56.9952C22.6034 57.0085 22.6354 57.0138 22.6672 57.0107C22.6989 57.0076 22.7293 56.9961 22.7551 56.9775C22.861 56.9023 22.948 56.8037 23.0095 56.6893C23.071 56.575 23.1052 56.448 23.1096 56.3182V56.2332H22.7906L22.7303 55.8185L22.4787 55.7724ZM22.904 56.0985H23.1096V55.3719L22.6169 55.6625L22.8615 55.705L22.904 56.0985Z" fill="white"/>
<path d="M22.7873 57.9877C22.7786 57.9877 22.77 57.9859 22.762 57.9825C22.754 57.9791 22.7468 57.9741 22.7409 57.9678C22.7349 57.9615 22.7303 57.954 22.7273 57.9458C22.7243 57.9377 22.723 57.929 22.7235 57.9203V57.0342C22.723 57.0256 22.7243 57.0169 22.7273 57.0087C22.7303 57.0006 22.7349 56.9931 22.7409 56.9868C22.7468 56.9805 22.754 56.9755 22.762 56.9721C22.77 56.9686 22.7786 56.9669 22.7873 56.9669C22.7963 56.9664 22.8052 56.9678 22.8137 56.971C22.8221 56.9742 22.8297 56.9791 22.836 56.9855C22.8424 56.9918 22.8473 56.9995 22.8505 57.0079C22.8538 57.0163 22.8551 57.0253 22.8546 57.0342V57.9203C22.8551 57.9293 22.8538 57.9383 22.8505 57.9467C22.8473 57.9551 22.8424 57.9627 22.836 57.9691C22.8297 57.9755 22.8221 57.9804 22.8137 57.9836C22.8052 57.9868 22.7963 57.9882 22.7873 57.9877V57.9877Z" fill="white"/>
<path d="M22.4008 58.211C22.3866 58.2101 22.373 58.2047 22.3621 58.1957C22.3511 58.1866 22.3433 58.1743 22.3398 58.1606C22.3362 58.1468 22.3371 58.1322 22.3424 58.119C22.3476 58.1058 22.3569 58.0946 22.3689 58.0869L23.1415 57.6404C23.1571 57.6314 23.1755 57.629 23.1928 57.6337C23.21 57.6383 23.2248 57.6496 23.2337 57.6652C23.2426 57.6807 23.245 57.6991 23.2404 57.7164C23.2357 57.7337 23.2244 57.7484 23.2089 57.7573L22.4362 58.2004C22.4258 58.2075 22.4134 58.2113 22.4008 58.211Z" fill="white"/>
<path d="M25.1513 56.6835C25.1261 56.6836 25.1014 56.6762 25.0804 56.6623C25.0533 56.6459 25.0313 56.6223 25.0169 56.5941C25.0025 56.566 24.9963 56.5343 24.9989 56.5028V56.322C24.9989 56.3042 25.006 56.287 25.0186 56.2744C25.0312 56.2618 25.0483 56.2547 25.0662 56.2547C25.0841 56.2547 25.1012 56.2618 25.1138 56.2744C25.1265 56.287 25.1335 56.3042 25.1335 56.322V56.5028C25.1287 56.5178 25.1287 56.5339 25.1335 56.5489C25.1486 56.5531 25.1646 56.5531 25.1796 56.5489C25.2201 56.5109 25.2518 56.4647 25.2726 56.4133C25.2934 56.3618 25.3028 56.3065 25.3001 56.2511V55.0709C25.3001 55.053 25.3072 55.0359 25.3199 55.0232C25.3325 55.0106 25.3496 55.0035 25.3675 55.0035C25.3765 55.003 25.3854 55.0044 25.3938 55.0076C25.4022 55.0108 25.4099 55.0157 25.4162 55.0221C25.4226 55.0285 25.4275 55.0361 25.4307 55.0445C25.4339 55.0529 25.4353 55.0619 25.4348 55.0709V56.2511C25.4377 56.3301 25.4223 56.4086 25.3897 56.4806C25.3571 56.5525 25.3082 56.616 25.247 56.6658C25.2169 56.6793 25.1841 56.6854 25.1513 56.6835V56.6835Z" fill="white"/>
<path d="M24.4531 55.6666V55.5532C24.4691 55.2578 24.5544 54.9704 24.7022 54.7143C24.85 54.4581 25.0561 54.2403 25.3038 54.0787C25.3926 54.0052 25.5018 53.9606 25.6168 53.9511C25.7317 53.9416 25.8467 53.9676 25.9464 54.0256C26.0461 54.0835 26.1256 54.1707 26.1742 54.2753C26.2228 54.3798 26.2382 54.4968 26.2182 54.6104V54.6458L24.4531 55.6666ZM25.7007 54.0929C25.5829 54.0989 25.4683 54.1342 25.3676 54.1957C25.1577 54.3349 24.98 54.5172 24.8461 54.7305C24.7123 54.9438 24.6254 55.1831 24.5914 55.4326L26.0835 54.5714C26.0899 54.488 26.0747 54.4044 26.0393 54.3286C26.0039 54.2529 25.9496 54.1875 25.8815 54.139C25.8283 54.1015 25.7657 54.0794 25.7007 54.0752V54.0929Z" fill="white"/>
<path d="M27.5401 55.3117C27.5222 55.3117 27.5051 55.3046 27.4924 55.292C27.4798 55.2794 27.4727 55.2622 27.4727 55.2444V52.9831C27.4704 52.9732 27.4704 52.9629 27.4726 52.953C27.4748 52.9431 27.4792 52.9338 27.4855 52.9259C27.4918 52.9179 27.4998 52.9115 27.509 52.9071C27.5181 52.9027 27.5281 52.9004 27.5383 52.9004C27.5484 52.9004 27.5585 52.9027 27.5676 52.9071C27.5767 52.9115 27.5848 52.9179 27.5911 52.9259C27.5974 52.9338 27.6018 52.9431 27.604 52.953C27.6062 52.9629 27.6062 52.9732 27.6039 52.9831V55.2444C27.6039 55.2616 27.5973 55.2783 27.5854 55.2908C27.5735 55.3033 27.5573 55.3108 27.5401 55.3117V55.3117Z" fill="white"/>
<path d="M27.363 53.5075H27.3347C27.3265 53.5041 27.3191 53.499 27.313 53.4926C27.3069 53.4862 27.3022 53.4785 27.2992 53.4702C27.2962 53.4619 27.2949 53.453 27.2956 53.4442C27.2962 53.4353 27.2986 53.4267 27.3028 53.4189L27.5367 52.873L27.8025 53.1779C27.8142 53.1903 27.8207 53.2068 27.8207 53.2239C27.8207 53.2411 27.8142 53.2575 27.8025 53.27C27.7894 53.282 27.7724 53.2886 27.7547 53.2886C27.737 53.2886 27.7199 53.282 27.7068 53.27L27.5828 53.1247L27.4304 53.4791C27.4234 53.4902 27.4132 53.4988 27.4011 53.5039C27.3891 53.509 27.3758 53.5102 27.363 53.5075V53.5075Z" fill="white"/>
<path d="M28.1535 54.9575C28.1359 54.9567 28.1193 54.9493 28.1069 54.9368C28.0944 54.9244 28.087 54.9078 28.0862 54.8902V52.6289C28.0862 52.611 28.0933 52.5939 28.1059 52.5812C28.1185 52.5686 28.1357 52.5615 28.1535 52.5615C28.1714 52.5615 28.1885 52.5686 28.2011 52.5812C28.2138 52.5939 28.2209 52.611 28.2209 52.6289V54.8902C28.22 54.9078 28.2126 54.9244 28.2002 54.9368C28.1877 54.9493 28.1711 54.9567 28.1535 54.9575Z" fill="white"/>
<path d="M27.9586 53.1603H27.9338C27.9256 53.1568 27.9182 53.1518 27.912 53.1455C27.9058 53.1391 27.9009 53.1316 27.8976 53.1234C27.8943 53.1151 27.8927 53.1063 27.8928 53.0975C27.8929 53.0886 27.8948 53.0799 27.8983 53.0717L28.1358 52.5259L28.3981 52.8307C28.4044 52.837 28.4094 52.8444 28.4128 52.8526C28.4163 52.8608 28.418 52.8696 28.418 52.8785C28.418 52.8874 28.4163 52.8963 28.4128 52.9045C28.4094 52.9127 28.4044 52.9201 28.3981 52.9264C28.3852 52.9374 28.3689 52.9434 28.352 52.9434C28.3351 52.9434 28.3188 52.9374 28.3059 52.9264L28.1783 52.7811L28.0259 53.1355C28.0182 53.1456 28.0077 53.1532 27.9958 53.1576C27.9839 53.162 27.971 53.163 27.9586 53.1603V53.1603Z" fill="white"/>
<path d="M20.9762 60.4545L10.896 54.6347V34.687L20.9762 40.5033V60.4545Z" fill="#E0E0E0"/>
<path d="M15.6772 39.8054L16.6555 40.3689V38.0119L15.6772 37.4448V39.8054Z" fill="#F5F5F5"/>
<path d="M16.6555 38.0118L26.7321 32.192L25.7574 31.6284L15.6772 37.4447L16.6555 38.0118Z" fill="white"/>
<path d="M12.9478 50.8317L16.0385 52.6039C16.2174 52.7201 16.3663 52.8771 16.4728 53.0619C16.5794 53.2467 16.6407 53.4542 16.6516 53.6672V55.5741C16.6516 55.964 16.3787 56.1235 16.0385 55.9285L12.9478 54.1563C12.7684 54.0403 12.619 53.8835 12.5118 53.6987C12.4046 53.5139 12.3427 53.3064 12.3311 53.093V51.1862C12.3346 50.7963 12.6075 50.6368 12.9478 50.8317Z" fill="#F5F5F5"/>
<path d="M12.707 51.3101L12.824 51.3774V53.4969L12.707 53.426V51.3101Z" fill="#E0E0E0"/>
<path d="M13.1855 51.5869L13.3876 51.7039V53.8234L13.1855 53.7029V51.5869Z" fill="#E0E0E0"/>
<path d="M13.6641 51.8594L13.781 51.9303V54.0462L13.6641 53.9789V51.8594Z" fill="#E0E0E0"/>
<path d="M14.0256 52.0649L14.2596 52.2067V54.3227L14.0256 54.1845V52.0649Z" fill="#E0E0E0"/>
<path d="M14.6208 52.4121L14.7378 52.4794V54.599L14.6208 54.5316V52.4121Z" fill="#E0E0E0"/>
<path d="M14.9648 52.6074L15.2165 52.7563V54.8758L14.9648 54.727V52.6074Z" fill="#E0E0E0"/>
<path d="M15.5779 52.9653L15.6948 53.0327V55.1522L15.5779 55.0813V52.9653Z" fill="#E0E0E0"/>
<path d="M15.8508 53.1216L15.9075 53.1535V55.273L15.8508 55.2376V53.1216Z" fill="#E0E0E0"/>
<path d="M15.3582 52.8486L15.4184 52.8841V55.0036L15.3582 54.9682V52.8486Z" fill="#E0E0E0"/>
<path d="M14.394 52.2852L14.4543 52.3206V54.4366L14.394 54.4047V52.2852Z" fill="#E0E0E0"/>
<path d="M13.866 51.9834L13.9262 52.0153V54.1348L13.866 54.0994V51.9834Z" fill="#E0E0E0"/>
<path d="M13.4905 51.7749L13.5472 51.8068V53.9263L13.4905 53.8909V51.7749Z" fill="#E0E0E0"/>
<path d="M12.9763 51.4624L13.033 51.4943V53.6138L12.9763 53.5784V51.4624Z" fill="#E0E0E0"/>
<path d="M16.0527 53.2422L16.1732 53.3095V55.4255L16.0527 55.3582V53.2422Z" fill="#E0E0E0"/>
<path d="M10.9915 89.6039L49.6747 111.933C50.1503 112.175 50.6761 112.3 51.2094 112.3C51.7427 112.3 52.2685 112.175 52.7441 111.933L137.501 63.0211C138.348 62.532 138.348 61.7381 137.501 61.249L98.8173 38.9195C98.3422 38.6765 97.8162 38.5498 97.2826 38.5498C96.749 38.5498 96.223 38.6765 95.7479 38.9195L10.9915 87.8317C10.1444 88.3208 10.1444 89.1147 10.9915 89.6039Z" fill="#455A64"/>
<path d="M31.8999 99.971C32.5594 100.304 33.2878 100.477 34.0265 100.477C34.7652 100.477 35.4936 100.304 36.1531 99.971C37.3334 99.2905 37.3334 98.1988 36.1531 97.5077C35.4941 97.1733 34.7655 96.999 34.0265 96.999C33.2875 96.999 32.5589 97.1733 31.8999 97.5077C30.7196 98.1988 30.7196 99.2976 31.8999 99.971Z" fill="#263238"/>
<path d="M50.4013 111.933L11.7181 89.6038C10.9596 89.1643 10.8816 88.4838 11.4806 87.9946C11.1022 88.2939 10.7912 88.6695 10.5677 89.097C10.3442 89.5245 10.2132 89.9942 10.1833 90.4757V91.9182C10.2124 92.4507 10.3665 92.9689 10.6332 93.4307C10.8998 93.8925 11.2715 94.2851 11.7181 94.5765L50.4013 116.906C50.8742 117.153 51.4025 117.275 51.936 117.26V112.302C51.4013 112.312 50.8729 112.185 50.4013 111.933V111.933Z" fill="#37474F"/>
<path d="M137.497 67.9906C137.945 67.6999 138.317 67.3077 138.585 66.8457C138.852 66.3838 139.006 65.8652 139.035 65.3323V63.8897C139.007 63.4077 138.876 62.9372 138.651 62.5095C138.427 62.0817 138.115 61.7065 137.734 61.4087C138.337 61.8978 138.259 62.5783 137.501 63.0143L52.7442 111.934C52.2709 112.18 51.7428 112.302 51.2095 112.288V117.275C51.7428 117.289 52.2709 117.167 52.7442 116.921L137.497 67.9906Z" fill="#263238"/>
<path d="M56.0474 107.308L19.0229 85.9215C18.5125 85.6273 18.5125 85.1488 19.0229 84.8581L90.5907 43.5273C90.8763 43.3823 91.192 43.3066 91.5123 43.3066C91.8325 43.3066 92.1483 43.3823 92.4338 43.5273L129.472 64.9105C129.979 65.2047 129.979 65.6796 129.472 65.9738L57.8763 107.308C57.5926 107.451 57.2794 107.525 56.9618 107.525C56.6442 107.525 56.3311 107.451 56.0474 107.308V107.308Z" fill="white"/>
<path d="M41.1292 95.3671L45.4498 92.8719L44.0108 92.0425L39.6902 94.5342L41.1292 95.3671Z" fill="#BA68C8"/>
<path d="M92.9622 65.4418L97.2828 62.9466L95.8402 62.1172L91.5232 64.6124L92.9622 65.4418Z" fill="#BA68C8"/>
<path d="M101.6 60.455L105.92 57.9598L104.481 57.1304L100.161 59.6221L101.6 60.455Z" fill="#BA68C8"/>
<path d="M115.465 51.7183C115.633 51.8022 115.818 51.8459 116.006 51.8459C116.194 51.8459 116.379 51.8022 116.546 51.7183C116.612 51.6961 116.668 51.6541 116.708 51.5981C116.748 51.5422 116.769 51.4752 116.769 51.4064C116.769 51.3377 116.748 51.2706 116.708 51.2147C116.668 51.1588 116.612 51.1168 116.546 51.0945C116.379 51.009 116.194 50.9644 116.006 50.9644C115.818 50.9644 115.633 51.009 115.465 51.0945C115.4 51.1168 115.344 51.1588 115.304 51.2147C115.264 51.2706 115.242 51.3377 115.242 51.4064C115.242 51.4752 115.264 51.5422 115.304 51.5981C115.344 51.6541 115.4 51.6961 115.465 51.7183V51.7183Z" fill="#263238"/>
<path d="M117.191 56.6127C117.526 56.7821 117.895 56.8704 118.27 56.8704C118.645 56.8704 119.015 56.7821 119.35 56.6127C119.945 56.2583 119.945 55.7089 119.35 55.3651C119.015 55.1957 118.645 55.1074 118.27 55.1074C117.895 55.1074 117.526 55.1957 117.191 55.3651C116.596 55.7089 116.596 56.2689 117.191 56.6127Z" fill="#263238"/>
<path d="M115.667 54.444C116.064 54.2136 116.043 53.8308 115.621 53.5862L108.533 49.4854C108.305 49.3631 108.051 49.2967 107.792 49.2918C107.533 49.2869 107.277 49.3435 107.044 49.457C106.647 49.6874 106.668 50.0702 107.09 50.3148L114.2 54.4156C114.426 54.5342 114.676 54.5985 114.93 54.6034C115.185 54.6083 115.438 54.5537 115.667 54.444V54.444Z" fill="#263238"/>
<path d="M103.567 37.8133L103.808 37.6715C103.641 38.2763 103.56 38.9014 103.567 39.5287V40.3936C103.567 43.4984 107.292 51.4307 108.664 54.2378C108.805 54.532 106.923 56.5346 106.923 56.5346L109.16 55.2444C109.16 55.2444 114.749 50.6368 114.749 46.8514V45.9866C114.749 42.1835 112.247 37.6573 109.16 35.8745C107.6 34.9778 106.193 34.9459 105.18 35.6264L103.053 36.8456L103.567 37.8133ZM106.363 40.7161C106.363 38.9439 107.615 38.2102 109.16 39.1034C109.032 40.2482 111.124 43.8139 111.953 43.945C111.953 45.7172 110.702 46.4509 109.16 45.5577C108.348 45.026 107.674 44.3106 107.19 43.4694C106.707 42.6282 106.428 41.685 106.378 40.7161H106.363Z" fill="#BA68C8"/>
<path d="M101.267 41.7795C101.33 45.5791 107.101 56.5347 107.101 56.5347C107.101 56.5347 112.616 51.8491 112.555 48.0495V47.1847C112.492 43.3851 109.915 38.8979 106.796 37.1683C103.677 35.4386 101.203 37.1116 101.267 40.9147V41.7795ZM104.067 42.056C104.038 40.2838 105.279 39.5288 106.835 40.3937C107.657 40.9107 108.346 41.6144 108.846 42.4476C109.345 43.2809 109.641 44.2201 109.709 45.1892C109.741 46.9614 108.501 47.7163 106.941 46.8515C106.12 46.3334 105.431 45.6294 104.932 44.7964C104.433 43.9634 104.136 43.0247 104.067 42.056V42.056Z" fill="#BA68C8"/>
<path opacity="0.1" d="M101.267 41.7795C101.33 45.5791 107.101 56.5347 107.101 56.5347C107.101 56.5347 112.616 51.8491 112.555 48.0495V47.1847C112.492 43.3851 109.915 38.8979 106.796 37.1683C103.677 35.4386 101.203 37.1116 101.267 40.9147V41.7795ZM104.067 42.056C104.038 40.2838 105.279 39.5288 106.835 40.3937C107.657 40.9107 108.346 41.6144 108.846 42.4476C109.345 43.2809 109.641 44.2201 109.709 45.1892C109.741 46.9614 108.501 47.7163 106.941 46.8515C106.12 46.3334 105.431 45.6294 104.932 44.7964C104.433 43.9634 104.136 43.0247 104.067 42.056V42.056Z" fill="black"/>
<path d="M47.2112 92.4533C50.7946 94.5162 59.1947 93.0169 65.9751 89.1004L84.6007 78.3503C91.3811 74.4338 93.9685 69.5922 90.3781 67.5329C86.7876 65.4736 78.3804 66.98 71.5929 70.893L53.0027 81.6288C46.2259 85.5418 43.6314 90.4011 47.2112 92.4533Z" fill="#F0F0F0"/>
<path d="M101.44 2.33104H101.458L104.524 0.558861H104.549C106.48 -0.419383 109.061 -0.150009 111.839 1.65762C117.425 5.2516 121.689 13.5454 121.367 20.1769C121.204 23.4838 119.949 25.7522 118.01 26.7517H117.992L114.923 28.5239H114.902C112.97 29.5057 110.386 29.2328 107.604 27.4287C102.021 23.8312 97.7576 15.5409 98.0801 8.90939C98.2503 5.59895 99.5227 3.33055 101.44 2.33104Z" fill="#37474F"/>
<path d="M115.079 28.4317L118.003 26.7304H118.024C119.946 25.7274 121.214 23.459 121.377 20.1556C121.519 17.1996 120.75 13.914 119.361 10.8623L116.291 12.6345C117.684 15.6862 118.453 18.9718 118.308 21.9314C118.156 25.1567 116.936 27.4003 115.079 28.4317Z" fill="#263238"/>
<path d="M107.618 27.4255C102.036 23.828 97.7718 15.5377 98.0943 8.9062C98.4168 2.27469 103.212 -0.18864 108.784 3.40535C114.356 6.99933 118.634 15.2931 118.311 21.9247C117.989 28.5562 113.2 31.0195 107.618 27.4255Z" fill="#455A64"/>
<path d="M112.296 26.9574C115.589 27.1169 116.124 23.413 116.195 21.818C116.479 15.9698 112.559 8.34945 107.636 5.17725C106.587 4.44246 105.366 3.99076 104.091 3.86583C100.802 3.70634 100.267 7.4102 100.192 9.00516C99.9089 14.8534 103.825 22.4737 108.752 25.6637C109.801 26.3985 111.022 26.8502 112.296 26.9751V26.9574Z" fill="#FAFAFA"/>
<path d="M107.558 16.5118C107.596 16.5119 107.635 16.5047 107.671 16.4905C107.745 16.4665 107.809 16.4188 107.853 16.3547C107.898 16.2907 107.919 16.2138 107.916 16.1361V7.68989C107.916 7.59588 107.878 7.50573 107.812 7.43926C107.745 7.37279 107.655 7.33545 107.561 7.33545C107.467 7.33545 107.377 7.37279 107.311 7.43926C107.244 7.50573 107.207 7.59588 107.207 7.68989V15.1082L103.262 10.0398C103.204 9.9646 103.118 9.91563 103.023 9.90366C102.929 9.8917 102.834 9.91772 102.759 9.976C102.683 10.0343 102.634 10.12 102.622 10.2144C102.611 10.3088 102.637 10.4041 102.695 10.4793L107.285 16.3736C107.317 16.4155 107.358 16.4497 107.406 16.4737C107.453 16.4976 107.505 16.5106 107.558 16.5118V16.5118Z" fill="#37474F"/>
<path d="M109.592 22.7607C109.609 22.764 109.626 22.764 109.642 22.7607C109.68 22.7492 109.711 22.7236 109.73 22.6892C109.75 22.6549 109.755 22.6145 109.745 22.5764L107.756 15.8811C107.745 15.843 107.719 15.811 107.684 15.7921C107.649 15.7731 107.608 15.7688 107.57 15.7801C107.532 15.7914 107.5 15.8173 107.481 15.8522C107.462 15.8871 107.458 15.9281 107.469 15.9662L109.454 22.6615C109.464 22.6902 109.483 22.7151 109.508 22.7328C109.532 22.7505 109.562 22.7603 109.592 22.7607V22.7607Z" fill="#BA68C8"/>
<path d="M107.671 14.4596C107.012 14.0379 106.448 14.3285 106.413 15.1083C106.415 15.5336 106.518 15.9524 106.712 16.3305C106.907 16.7087 107.188 17.0356 107.533 17.2845C108.189 17.7098 108.752 17.4192 108.791 16.6394C108.788 16.2138 108.685 15.7948 108.491 15.4162C108.296 15.0376 108.015 14.7099 107.671 14.4596V14.4596Z" fill="#BA68C8"/>
<path d="M49.7703 90.3798L54.0873 87.8846L52.6483 87.0552L48.3313 89.5469L49.7703 90.3798Z" fill="#BA68C8"/>
<path d="M58.4078 85.3935L62.7283 82.8982L61.2858 82.0688L56.9688 84.5605L58.4078 85.3935Z" fill="#BA68C8"/>
<path d="M56.6321 84.376C56.6321 86.4601 55.1718 88.9837 53.3677 90.047C52.4072 90.6035 51.5424 90.6212 50.9469 90.2029C50.7069 90.0143 50.5097 89.7767 50.3685 89.506C50.2274 89.2353 50.1454 88.9376 50.1282 88.6328C50.2494 88.5762 50.3677 88.5135 50.4826 88.4449C52.2867 87.4064 53.747 84.8722 53.747 82.774C53.7487 82.6187 53.7392 82.4635 53.7186 82.3096C53.989 82.1666 54.2862 82.0814 54.5913 82.0594C54.8964 82.0374 55.2027 82.0792 55.4908 82.182C56.1997 82.4798 56.6321 83.2489 56.6321 84.376Z" fill="#263238"/>
<path d="M56.9263 80.0945L56.866 80.0591C55.9587 79.5771 54.7394 79.6657 53.3677 80.4525C50.5854 82.0581 48.3276 85.964 48.3276 89.1787C48.3276 90.795 48.8983 91.9256 49.8198 92.4502C50.7414 92.9748 51.9854 92.8861 53.3642 92.0958C56.1465 90.4902 58.4007 86.5807 58.4007 83.366C58.4043 81.7498 57.8443 80.6191 56.9263 80.0945ZM53.3819 90.04C52.4178 90.5965 51.553 90.6142 50.9576 90.1924C50.433 89.838 50.114 89.1291 50.114 88.1544C50.114 86.0739 51.5778 83.5467 53.3819 82.4834C54.2042 82.0085 54.9521 81.927 55.5085 82.1715C56.1961 82.4657 56.6285 83.2348 56.6285 84.369C56.6321 86.4673 55.1718 89.0015 53.3677 90.0471L53.3819 90.04Z" fill="#37474F"/>
<path d="M55.6751 82.2672L55.6362 82.2459C55.0478 81.9305 54.2503 81.9907 53.3678 82.4976C51.5637 83.5396 50.0999 86.0739 50.0999 88.1686C50.0999 89.2319 50.4543 89.9408 51.0675 90.2952C51.6806 90.6496 52.4852 90.5787 53.3678 90.0613C55.1718 89.0192 56.6321 86.485 56.6321 84.3903C56.6321 83.3411 56.2671 82.6039 55.6751 82.2672ZM53.3678 89.3028C52.5951 89.7494 51.9004 89.7635 51.4184 89.4233C51.0001 89.1291 50.7414 88.5655 50.7414 87.7858C50.791 86.8747 51.0547 85.9882 51.511 85.1981C51.9673 84.4081 52.6035 83.7366 53.3678 83.2384C53.616 83.065 53.9014 82.952 54.201 82.9083C54.5007 82.8646 54.8064 82.8914 55.0939 82.9867C55.6468 83.2242 55.9941 83.8409 55.9941 84.7589C55.9448 85.6695 55.6812 86.5556 55.2248 87.3452C54.7685 88.1347 54.1322 88.8054 53.3678 89.3028V89.3028Z" fill="#BA68C8"/>
<path d="M67.0455 80.4027L71.366 77.9111L69.927 77.0781L65.6064 79.5734L67.0455 80.4027Z" fill="#BA68C8"/>
<path d="M75.6867 75.4159L80.0037 72.9242L78.5647 72.0913L74.2441 74.5865L75.6867 75.4159Z" fill="#BA68C8"/>
<path d="M84.3244 70.4286L88.6414 67.9369L87.2024 67.104L82.8818 69.5992L84.3244 70.4286Z" fill="#BA68C8"/>
<path d="M62.8278 47.2382C62.8729 47.1779 62.9361 47.1335 63.0082 47.1116C63.0803 47.0896 63.1575 47.0912 63.2286 47.1161C63.2997 47.141 63.361 47.1879 63.4037 47.25C63.4463 47.3121 63.4681 47.3862 63.4658 47.4615C63.4935 47.6632 63.4729 47.8687 63.4057 48.0609C63.3386 48.2532 63.2267 48.4267 63.0794 48.5673C62.7959 48.8119 62.5088 48.7126 62.4414 48.344C62.414 48.1423 62.4347 47.9369 62.5019 47.7447C62.569 47.5525 62.6807 47.379 62.8278 47.2382V47.2382Z" fill="#BA68C8"/>
<path d="M66.1525 48.8047L63.2638 47.1353L62.6294 48.6629L65.5287 50.3358L66.1525 48.8047Z" fill="#BA68C8"/>
<path d="M65.7093 48.9004C65.9928 48.6594 66.2764 48.7586 66.3473 49.1273C66.3734 49.3287 66.3517 49.5335 66.2839 49.725C66.2162 49.9165 66.1043 50.0893 65.9574 50.2296C65.6738 50.4741 65.3867 50.3749 65.3194 50.0063C65.2935 49.8043 65.3154 49.5991 65.3831 49.4071C65.4508 49.215 65.5625 49.0415 65.7093 48.9004V48.9004Z" fill="#BA68C8"/>
<path d="M87.9113 62.88C87.9113 62.9509 87.9113 63.0147 87.9113 63.0855C87.9113 63.2273 87.9113 63.3726 87.9113 63.518C87.3371 63.2734 86.5893 63.3549 85.767 63.8299C83.9629 64.8719 82.4991 67.4061 82.4991 69.5008C82.4991 70.472 82.8181 71.1738 83.3426 71.5389C83.1954 71.6436 83.0428 71.7406 82.8854 71.8295L82.7188 71.9146L82.2191 73.7966L79.3269 72.1839C78.4124 71.6558 77.8489 70.5287 77.8489 68.9196C77.8489 65.7048 80.1031 61.7989 82.8854 60.1898C84.2606 59.3959 85.5047 59.3143 86.4298 59.8354L89.2653 61.4232L89.3255 61.4587L87.9113 62.88Z" fill="#455A64"/>
<path d="M89.3218 61.4266L89.2615 61.3911C88.3542 60.9091 87.1349 60.9977 85.7632 61.7845C82.9809 63.3901 80.7231 67.296 80.7231 70.5108C80.7231 72.127 81.2938 73.2577 82.2153 73.7822C83.1369 74.3068 84.3809 74.2182 85.7597 73.4278C88.542 71.8222 90.7962 67.9128 90.7962 64.698C90.8069 63.0818 90.2362 61.9511 89.3218 61.4266ZM85.7774 71.3721C84.8133 71.9285 83.9485 71.9462 83.3531 71.5245C82.8285 71.17 82.5095 70.4612 82.5095 69.4865C82.5095 67.4059 83.9733 64.8788 85.7774 63.8155C86.5997 63.3405 87.3476 63.259 87.9217 63.5036C88.6094 63.7977 89.0418 64.5669 89.0418 65.7011C89.0347 67.7993 87.5673 70.3336 85.7632 71.3721H85.7774Z" fill="#37474F"/>
<path d="M89.0349 65.7149C89.0349 67.799 87.5746 70.3225 85.7706 71.3859C84.81 71.9423 83.9452 71.96 83.3498 71.5418C83.1097 71.3532 82.9125 71.1156 82.7713 70.8449C82.6302 70.5741 82.5483 70.2765 82.531 69.9716C82.6522 69.915 82.7705 69.8523 82.8854 69.7838C84.6895 68.7453 86.1498 66.2111 86.1498 64.1128C86.1515 63.9576 86.142 63.8024 86.1214 63.6485C86.3918 63.5055 86.689 63.4202 86.9941 63.3983C87.2992 63.3763 87.6055 63.4181 87.8936 63.5209C88.5954 63.8186 89.0349 64.5807 89.0349 65.7149Z" fill="#263238"/>
<path d="M88.0707 63.5991L88.0317 63.5743C87.4433 63.2623 86.6423 63.3191 85.7633 63.8294C83.9592 64.8715 82.4954 67.4022 82.4954 69.5004C82.4954 70.5637 82.8498 71.2726 83.463 71.627C84.0762 71.9815 84.8807 71.907 85.7633 71.3896C87.5673 70.3511 89.0276 67.8169 89.0276 65.7186C89.0347 64.673 88.6803 63.9393 88.0707 63.5991ZM85.7633 70.6311C84.9871 71.0812 84.2924 71.0954 83.8139 70.7551C83.3921 70.461 83.1369 69.8974 83.1369 69.1176C83.1865 68.2066 83.4502 67.3201 83.9065 66.53C84.3629 65.7399 84.999 65.0685 85.7633 64.5702C86.4225 64.1874 87.0251 64.1201 87.4858 64.3186C88.0388 64.556 88.3861 65.1728 88.3861 66.0908C88.3369 67.0005 88.0737 67.8858 87.6179 68.6747C87.1622 69.4637 86.5268 70.1339 85.7633 70.6311Z" fill="#BA68C8"/>
<path d="M82.8817 66.7751L91.0338 62.0682C91.9801 61.5188 88.9071 58.3112 86.621 58.095C85.3624 57.9429 84.0859 58.0638 82.8782 58.4494C82.8782 58.4494 84.6185 60.6788 84.3207 61.9441C84.023 63.2095 82.8817 66.7751 82.8817 66.7751Z" fill="#BA68C8"/>
<path d="M71.3661 53.4727C71.3661 53.4727 83.183 59.4343 83.6934 59.7923C84.2038 60.1502 83.6934 64.3078 82.8817 66.7747C82.0701 69.2415 80.8224 73.034 80.3227 74.0973C79.8229 75.1606 79.1708 75.5576 77.9728 76.2487L69.4663 81.1648L57.9507 82.5683L53.3784 80.0873L54.5693 72.6051C54.5693 72.6051 66.808 66.0941 68.4845 65.1265C70.161 64.1589 75.1195 59.6186 71.3661 53.4727Z" fill="#BA68C8"/>
<path opacity="0.2" d="M71.3661 53.4727C71.3661 53.4727 83.183 59.4343 83.6934 59.7923C84.2038 60.1502 83.6934 64.3078 82.8817 66.7747C82.0701 69.2415 80.8224 73.034 80.3227 74.0973C79.8229 75.1606 79.1708 75.5576 77.9728 76.2487L69.4663 81.1648L57.9507 82.5683L53.3784 80.0873L54.5693 72.6051C54.5693 72.6051 66.808 66.0941 68.4845 65.1265C70.161 64.1589 75.1195 59.6186 71.3661 53.4727Z" fill="black"/>
<path d="M83.9203 65.3534C84.9836 62.4967 85.7775 60.129 85.6428 58.5305C85.4798 56.6343 84.7709 55.0854 81.6448 54.3056C78.5187 53.5259 74.1485 53.5401 74.1485 53.5401L72.8193 54.3092C72.8193 54.3092 81.8078 59.5194 82.8286 60.0865C83.4524 60.4409 84.1188 62.004 82.896 66.7783L83.1051 66.8988C83.2079 66.9626 83.58 66.2714 83.9203 65.3534Z" fill="#BA68C8"/>
<path opacity="0.3" d="M83.9203 65.3534C84.9836 62.4967 85.7775 60.129 85.6428 58.5305C85.4798 56.6343 84.7709 55.0854 81.6448 54.3056C78.5187 53.5259 74.1485 53.5401 74.1485 53.5401L72.8193 54.3092C72.8193 54.3092 81.8078 59.5194 82.8286 60.0865C83.4524 60.4409 84.1188 62.004 82.896 66.7783L83.1051 66.8988C83.2079 66.9626 83.58 66.2714 83.9203 65.3534Z" fill="white"/>
<path d="M77.1115 56.7976L78.5646 55.9682C78.5646 55.9682 78.4796 50.9317 76.3601 49.7089C74.2405 48.4861 67.0455 49.319 67.0455 49.319L65.6064 50.1484L77.1115 56.7976Z" fill="#BA68C8"/>
<path d="M72.3973 50.8601C71.7061 51.2606 71.7061 51.9057 72.3973 52.3027C72.7848 52.5 73.2135 52.6028 73.6484 52.6028C74.0833 52.6028 74.512 52.5 74.8996 52.3027C75.5872 51.9057 75.5872 51.2571 74.8996 50.8601C74.5115 50.6644 74.083 50.5625 73.6484 50.5625C73.2138 50.5625 72.7853 50.6644 72.3973 50.8601V50.8601Z" fill="#F0F0F0"/>
<path d="M74.6093 53.267C74.1237 53.5506 74.1237 54.0078 74.6093 54.2878C74.8836 54.4281 75.1873 54.5013 75.4954 54.5013C75.8035 54.5013 76.1072 54.4281 76.3815 54.2878C76.8706 54.0078 76.8706 53.5506 76.3815 53.267C76.1067 53.1284 75.8032 53.0562 75.4954 53.0562C75.1876 53.0562 74.8841 53.1284 74.6093 53.267V53.267Z" fill="#F0F0F0"/>
<path d="M69.0409 50.2193C68.5518 50.4993 68.5518 50.9565 69.0409 51.2401C69.3157 51.3787 69.6192 51.451 69.927 51.451C70.2348 51.451 70.5383 51.3787 70.8131 51.2401C71.3022 50.9565 71.3022 50.4993 70.8131 50.2193C70.5388 50.079 70.2351 50.0059 69.927 50.0059C69.6189 50.0059 69.3152 50.079 69.0409 50.2193V50.2193Z" fill="#F0F0F0"/>
<path d="M77.3382 55.3372C77.6218 55.0926 77.9053 55.1918 77.9762 55.5605C78.0023 55.7624 77.9806 55.9677 77.9129 56.1598C77.8452 56.3519 77.7333 56.5254 77.5863 56.6663C77.5412 56.7266 77.478 56.771 77.4059 56.7929C77.3338 56.8149 77.2566 56.8133 77.1855 56.7884C77.1144 56.7635 77.0531 56.7166 77.0104 56.6545C76.9678 56.5924 76.946 56.5183 76.9483 56.443C76.9211 56.241 76.9422 56.0353 77.01 55.8431C77.0778 55.6508 77.1903 55.4774 77.3382 55.3372Z" fill="#BA68C8"/>
<path d="M80.6452 56.9038L77.753 55.2344L77.1221 56.762L80.0178 58.4314L80.6452 56.9038Z" fill="#BA68C8"/>
<path d="M80.1987 56.9994C80.2438 56.9391 80.307 56.8948 80.3791 56.8728C80.4512 56.8508 80.5284 56.8524 80.5995 56.8773C80.6706 56.9022 80.7319 56.9491 80.7746 57.0112C80.8172 57.0733 80.839 57.1474 80.8367 57.2227C80.8636 57.4247 80.8424 57.6303 80.7746 57.8225C80.7068 58.0147 80.5945 58.1881 80.4468 58.3286C80.1632 58.5731 79.8797 58.4703 79.8088 58.1053C79.7824 57.9033 79.8039 57.6979 79.8717 57.5058C79.9394 57.3137 80.0514 57.1402 80.1987 56.9994V56.9994Z" fill="#BA68C8"/>
<path d="M80.1987 56.9994C80.2438 56.9391 80.307 56.8948 80.3791 56.8728C80.4512 56.8508 80.5284 56.8524 80.5995 56.8773C80.6706 56.9022 80.7319 56.9491 80.7746 57.0112C80.8172 57.0733 80.839 57.1474 80.8367 57.2227C80.8636 57.4247 80.8424 57.6303 80.7746 57.8225C80.7068 58.0147 80.5945 58.1881 80.4468 58.3286C80.1632 58.5731 79.8797 58.4703 79.8088 58.1053C79.7824 57.9033 79.8039 57.6979 79.8717 57.5058C79.9394 57.3137 80.0514 57.1402 80.1987 56.9994V56.9994Z" fill="black"/>
<path d="M55.5157 81.5411C55.5157 81.612 55.5157 81.6758 55.5157 81.7467C55.5157 81.8884 55.5157 82.0338 55.5157 82.1791C54.9415 81.9345 54.1936 82.016 53.3891 82.491C51.585 83.533 50.1212 86.0673 50.1212 88.162C50.1212 89.1331 50.4401 89.8349 50.9647 90.2C50.8174 90.3047 50.6648 90.4017 50.5075 90.4906L50.3409 90.5757L49.8411 92.4577L46.9489 90.8451C46.0345 90.317 45.4709 89.1898 45.4709 87.5807C45.4709 84.366 47.7252 80.4601 50.5075 78.8509C51.8827 78.057 53.1268 77.9755 54.0519 78.4965L56.8873 80.0844L56.9476 80.1198L55.5157 81.5411Z" fill="#455A64"/>
<path d="M46.8885 75.916L44.73 83.3982L49.0506 85.8934L51.2871 78.4573L46.8885 75.916Z" fill="#BA68C8"/>
<path opacity="0.2" d="M46.8885 75.916L44.73 83.3982L49.0506 85.8934L51.2871 78.4573L46.8885 75.916Z" fill="black"/>
<path d="M46.8887 75.9156C46.8887 75.9156 49.3378 77.9962 51.2872 78.4569C53.8463 79.0772 57.9152 79.1446 59.3577 79.2438C61.5623 79.3962 63.2282 79.3927 64.008 79.1127C65.0181 78.7582 67.7331 77.181 68.4845 76.7486C69.9235 75.9192 70.5367 72.6548 66.5705 71.7616C63.8888 71.206 61.1572 70.9269 58.4185 70.9287L46.8887 75.9156Z" fill="#BA68C8"/>
<path d="M71.313 74.9583C71.1897 75.2666 71.1063 75.5894 71.0649 75.9188C70.9507 76.2612 70.9239 76.6267 70.9869 76.9821C71.2571 77.4289 71.6822 77.7607 72.1813 77.9143C72.5409 77.9942 72.9131 77.9993 73.2747 77.9292C73.6363 77.8591 73.9795 77.7152 74.2831 77.5067C75.0168 77.0672 75.5697 76.5355 76.6118 76.2378C77.3566 76.0801 78.0582 75.762 78.6675 75.3056C79.2453 74.8413 80.0179 73.5583 78.9121 73.2605C77.8062 72.9628 75.4032 74.0119 73.2127 74.1076L71.313 74.9583Z" fill="#37474F"/>
<path d="M71.3132 73.5908V75.2283C71.3803 75.4123 71.4969 75.5742 71.6501 75.6962C71.8033 75.8181 71.9872 75.8954 72.1816 75.9195C72.3596 75.9455 72.5413 75.926 72.7097 75.8628C72.9752 75.7614 73.2053 75.5845 73.3715 75.354C73.5378 75.1235 73.633 74.8495 73.6454 74.5655L73.7092 73.5908H71.3132Z" fill="#FFA8A7"/>
<path d="M74.4319 63.4644C74.4319 65.5024 73.8577 74.3137 73.8577 74.3137C73.8577 74.3137 73.0248 75.377 71.2136 74.3137L70.604 64.4674L74.4319 63.4644Z" fill="#37474F"/>
<path d="M64.9331 72.1481L70.6041 68.8802C70.8364 68.7582 71.031 68.5751 71.1668 68.3505C71.3026 68.1259 71.3744 67.8684 71.3744 67.606C71.3744 67.3436 71.3026 67.0861 71.1668 66.8615C71.031 66.6369 70.8364 66.4537 70.6041 66.3318L66.3792 63.8933C66.1413 63.7728 65.8784 63.71 65.6118 63.71C65.3452 63.71 65.0823 63.7728 64.8445 63.8933L59.1735 67.1612C58.9421 67.284 58.7485 67.4675 58.6135 67.692C58.4786 67.9164 58.4072 68.1734 58.4072 68.4354C58.4072 68.6973 58.4786 68.9543 58.6135 69.1788C58.7485 69.4033 58.9421 69.5868 59.1735 69.7096L63.3984 72.1481C63.6362 72.2686 63.8991 72.3314 64.1657 72.3314C64.4324 72.3314 64.6952 72.2686 64.9331 72.1481Z" fill="#BA68C8"/>
<path d="M64.9331 72.1481L70.6041 68.8802C70.8364 68.7582 71.031 68.5751 71.1668 68.3505C71.3026 68.1259 71.3744 67.8684 71.3744 67.606C71.3744 67.3436 71.3026 67.0861 71.1668 66.8615C71.031 66.6369 70.8364 66.4537 70.6041 66.3318L66.3792 63.8933C66.1413 63.7728 65.8784 63.71 65.6118 63.71C65.3452 63.71 65.0823 63.7728 64.8445 63.8933L59.1735 67.1612C58.9421 67.284 58.7485 67.4675 58.6135 67.692C58.4786 67.9164 58.4072 68.1734 58.4072 68.4354C58.4072 68.6973 58.4786 68.9543 58.6135 69.1788C58.7485 69.4033 58.9421 69.5868 59.1735 69.7096L63.3984 72.1481C63.6362 72.2686 63.8991 72.3314 64.1657 72.3314C64.4324 72.3314 64.6952 72.2686 64.9331 72.1481Z" fill="white"/>
<path d="M59.1735 68.0473L63.3984 70.4858C63.6362 70.6063 63.8991 70.6691 64.1657 70.6691C64.4324 70.6691 64.6952 70.6063 64.9331 70.4858L70.6041 67.2179C70.6966 67.1865 70.777 67.1268 70.834 67.0474C70.891 66.9679 70.9216 66.8726 70.9216 66.7748C70.9216 66.6771 70.891 66.5818 70.834 66.5023C70.777 66.4228 70.6966 66.3632 70.6041 66.3318L66.3792 63.8933C66.1413 63.7728 65.8784 63.71 65.6118 63.71C65.3452 63.71 65.0823 63.7728 64.8445 63.8933L59.1735 67.1612C59.0809 67.1926 59.0005 67.2522 58.9435 67.3317C58.8866 67.4111 58.856 67.5065 58.856 67.6042C58.856 67.702 58.8866 67.7973 58.9435 67.8768C59.0005 67.9562 59.0809 68.0159 59.1735 68.0473Z" fill="#BA68C8"/>
<path d="M62.6293 46.3559L61.9098 49.3225L58.8191 49.5104L59.4854 45.3989L62.6293 46.3559Z" fill="#FFA8A7"/>
<path d="M65.642 44.1226C65.642 44.1226 65.9965 45.3773 65.8512 45.4482C65.628 45.4822 65.4009 45.4822 65.1777 45.4482L65.642 44.1226Z" fill="#F28F8F"/>
<path d="M65.0501 40.1172C65.5463 40.702 66 41.6626 65.6491 44.016C65.2663 46.5892 64.7914 46.8869 64.4086 47.135C63.9088 47.4611 61.9098 47.2875 61.3463 46.8763C60.6693 46.3836 59.6237 44.8206 59.3756 43.2788C59.085 41.4676 59.691 39.458 61.0237 39.1142C62.8987 38.6286 64.6283 39.621 65.0501 40.1172Z" fill="#FFA8A7"/>
<path d="M59.1736 46.2315C59.652 46.7278 60.6338 46.8624 61.2506 46.9759C61.8673 47.0893 63.7635 47.2133 64.3235 45.8629C64.8835 44.5125 64.5007 43.5414 65.1883 43.2153C65.8759 42.8892 66.5636 42.6765 66.7443 42.5064C66.9251 42.3363 66.9286 40.114 65.082 38.9621C63.2354 37.8101 60.407 37.5443 58.5462 39.88C57.1355 41.6841 57.7133 44.7075 59.1736 46.2315Z" fill="#455A64"/>
<path d="M61.0342 46.9935C61.5127 47.0361 63.0261 46.7986 63.4833 46.1748C63.9406 45.551 64.1249 44.4345 64.1922 43.8497C64.1984 43.6194 64.2829 43.398 64.4317 43.2221C64.5805 43.0462 64.7848 42.9263 65.011 42.8821C65.4682 42.7368 66.4783 42.2405 66.4783 42.2405V41.9641C66.8041 41.9436 67.1308 41.9436 67.4566 41.9641C67.6692 42.0031 67.5523 42.3185 67.0135 42.5914C66.4748 42.8644 64.9968 43.3925 64.7699 43.5732C64.5431 43.754 64.4368 44.516 64.256 45.3277C64.0752 46.1393 63.5152 47.3515 61.0342 46.9935Z" fill="#37474F"/>
<path d="M65.2875 50.3499L67.0597 49.3326C67.2298 48.8187 66.9569 48.56 66.4748 48.5919C65.9928 48.6238 66.1417 48.1559 65.8475 48.0248C65.4612 47.8476 65.2414 47.9468 65.0677 47.8653C64.8941 47.7838 64.8196 47.5782 64.5928 47.5534C63.5791 47.4577 62.8879 48.9038 62.8879 48.9038L65.2875 50.3499Z" fill="#F28F8F"/>
<path d="M53.2578 63.365C53.2578 63.365 61.0873 59.484 62.4519 58.8566C63.8165 58.2293 65.9573 57.3184 67.095 57.3184C67.5396 57.3551 67.9561 57.5509 68.2679 57.87C68.5798 58.189 68.7661 58.6098 68.7928 59.0551C68.8075 59.7388 68.7684 60.4226 68.6758 61.1002C66.5247 61.8059 64.3264 62.359 62.0975 62.7554C58.8402 63.3225 53.2578 63.365 53.2578 63.365Z" fill="#37474F"/>
<path d="M54.1087 61.1212C54.1087 62.7303 53.9562 64.4032 54.6261 65.58C55.296 66.7567 58.9254 69.4788 62.3422 68.9081C64.5752 68.5324 71.2031 65.4807 71.2031 65.4807C71.2031 65.4807 74.4179 64.3005 74.432 63.4604C74.4533 62.2235 74.3682 60.4796 71.5647 60.5541C69.0092 60.6214 61.4703 62.1951 61.4703 62.1951L54.1087 61.1212Z" fill="#455A64"/>
<path d="M56.2955 48.3721C57.5077 47.1068 58.3264 47.0004 58.9077 47.1564C60.2436 47.5387 61.5369 48.0565 62.7675 48.7017C62.7675 48.7017 62.2997 53.2314 64.5149 54.5357V61.5961C64.5149 61.5961 64.4475 62.3617 63.4835 63.1237C62.6328 63.7936 60.7082 64.4706 58.4115 64.2792C55.6823 64.0524 54.1086 61.1212 54.1086 61.1212C54.1086 61.1212 54.0377 55.3474 54.4241 53.0542C54.8778 50.3782 55.8773 48.8116 56.2955 48.3721Z" fill="#455A64"/>
<path d="M64.5147 54.8797C64.5147 54.8797 63.1749 53.8164 62.7673 52.4341C62.7673 52.4341 62.9268 54.6032 64.5147 55.702V54.8797Z" fill="#37474F"/>
<path d="M76.9165 58.2112C77.5529 58.2374 78.1788 58.0434 78.6887 57.6618C78.6887 57.6618 79.3054 56.4638 80.0639 56.5666C80.0639 56.5666 80.1986 56.0562 79.8867 55.8896C79.5748 55.7231 79.4401 55.7691 79.3125 55.5919C79.1849 55.4147 79.1708 55.0851 78.6037 55.0851C78.3697 55.0851 78.4016 54.9185 77.8345 54.8511C77.2674 54.7838 76.7074 56.0917 76.2927 56.0917L76.9165 58.2112Z" fill="#FFA8A7"/>
<path d="M62.7674 48.7021C64.7132 49.0034 65.4186 49.5811 66.1274 50.2369C66.8363 50.8926 71.1746 55.245 71.1746 55.245L76.4274 56C76.7034 56.2235 76.9059 56.5248 77.0086 56.8648C77.2213 57.4815 77.0299 58.155 76.8279 58.3145C76.8279 58.3145 71.6177 58.6264 70.5933 58.4314C69.569 58.2365 64.497 54.8693 64.497 54.8693C64.0123 54.5038 63.6057 54.0447 63.3013 53.5194C62.9969 52.994 62.8009 52.4129 62.7249 51.8106C62.3952 49.6733 62.7674 48.7021 62.7674 48.7021Z" fill="#455A64"/>
<path d="M58.0959 67.4234L50.0466 77.2484C49.9573 77.2597 49.8673 77.2656 49.7773 77.2661C49.4581 77.2711 49.1427 77.1968 48.8593 77.0499L42.0612 73.1227L41.6004 72.8569C41.3488 72.7116 41.1396 72.1161 41.1396 71.5277V69.8725C41.1394 68.1722 41.5867 66.5018 42.4365 65.0291C43.2864 63.5565 44.5089 62.3335 45.9813 61.483L54.0978 56.7974L62.7355 61.7843L58.0959 67.4234Z" fill="#BA68C8"/>
<g opacity="0.1">
<path opacity="0.1" d="M58.0959 67.4234L50.0466 77.2484C49.9573 77.2597 49.8673 77.2656 49.7773 77.2661C49.4581 77.2711 49.1427 77.1968 48.8593 77.0499L42.0612 73.1227L41.6004 72.8569C41.3488 72.7116 41.1396 72.1161 41.1396 71.5277V69.8725C41.1394 68.1722 41.5867 66.5018 42.4365 65.0291C43.2864 63.5565 44.5089 62.3335 45.9813 61.483L54.0978 56.7974L62.7355 61.7843L58.0959 67.4234Z" fill="black"/>
</g>
<path d="M55.3208 70.8117L62.7249 61.7877L54.0873 56.8008L45.9743 61.4829C44.9248 62.0905 43.999 62.89 43.2451 63.8399L55.3208 70.8117Z" fill="#BA68C8"/>
<path d="M62.725 69.0324C62.725 69.6208 62.5195 70.2162 62.2643 70.3615L61.8035 70.6274L50.6884 77.0462C50.4861 77.1552 50.2646 77.2238 50.0362 77.2482C49.9469 77.2596 49.8569 77.2655 49.7668 77.266V74.8593C49.7666 73.1586 50.2142 71.4878 51.0648 70.0151C51.9153 68.5423 53.1388 67.3196 54.612 66.4698L55.53 65.9417L62.725 61.7842V69.0324Z" fill="#BA68C8"/>
<g opacity="0.2">
<path opacity="0.2" d="M62.725 69.0324C62.725 69.6208 62.5195 70.2162 62.2643 70.3615L61.8035 70.6274L50.6884 77.0462C50.4861 77.1552 50.2646 77.2238 50.0362 77.2482C49.9469 77.2596 49.8569 77.2655 49.7668 77.266V74.8593C49.7666 73.1586 50.2142 71.4878 51.0648 70.0151C51.9153 68.5423 53.1388 67.3196 54.612 66.4698L55.53 65.9417L62.725 61.7842V69.0324Z" fill="black"/>
</g>
<path d="M65.1102 81.1897L69.4592 81.1755L75.6831 77.5815L69.5868 81.9872L64.9968 82.051L65.1102 81.1897Z" fill="#E0E0E0"/>
<path d="M54.5517 87.3782C54.5517 87.3782 62.3918 84.4221 63.0582 84.0748C63.8402 83.5956 64.5822 83.0539 65.2769 82.455C65.4187 82.2675 65.4853 82.0338 65.4636 81.7997C65.442 81.5656 65.3337 81.3481 65.16 81.1897C65.16 81.1897 61.97 81.0444 61.1513 81.296C60.6941 81.4342 53.3147 83.8019 53.3147 83.8019L54.5517 87.3782Z" fill="#E0E0E0"/>
<path d="M54.2006 84.0752C53.5519 83.5187 52.8998 83.7491 52.7403 84.5855C52.6794 85.0471 52.7282 85.5164 52.8828 85.9555C53.0374 86.3947 53.2933 86.7911 53.6299 87.1127C54.2785 87.6691 54.9307 87.4423 55.0902 86.6023C55.1508 86.1408 55.1019 85.6715 54.9473 85.2324C54.7928 84.7934 54.5369 84.3969 54.2006 84.0752Z" fill="#455A64"/>
</svg>
